<?xml version="1.0" encoding="UTF-8" standalone="no"?><svg xmlns="http://www.w3.org/2000/svg" xmlns:xlink="http://www.w3.org/1999/xlink" contentStyleType="text/css" height="734px" preserveAspectRatio="none" style="width:516px;height:734px;background:#FFFFFF;" version="1.1" viewBox="0 0 516 734" width="516px" zoomAndPan="magnify"><defs/><g><!--MD5=[5825f083bc1e85ebaf49e697220b5618]
class InfoInputPanel--><g id="elem_InfoInputPanel"><rect codeLine="6" fill="#FFFFFF" height="146.0879" id="InfoInputPanel" rx="2.5" ry="2.5" style="stroke:#000000;stroke-width:1.0;" width="340" x="12" y="581"/><ellipse cx="127.25" cy="595" fill="#FFFFFF" rx="9" ry="9" style="stroke:#000000;stroke-width:1.0;"/><path d="M130.0156,596.5313 L132.4063,597.2813 Q131.8594,599.2656 130.5781,600.2344 Q129.3125,601.2031 127.3438,601.2031 Q124.9219,601.2031 123.3594,599.5469 Q121.8125,597.8906 121.8125,595.0156 Q121.8125,591.9844 123.375,590.3125 Q124.9375,588.625 127.5,588.625 Q129.7344,588.625 131.125,589.9375 Q131.9531,590.7188 132.375,592.1875 L129.9375,592.7656 Q129.7188,591.8125 129.0313,591.2656 Q128.3594,590.7188 127.375,590.7188 Q126.0156,590.7188 125.1719,591.7031 Q124.3438,592.6719 124.3438,594.8438 Q124.3438,597.1406 125.1719,598.125 Q126,599.1094 127.3281,599.1094 Q128.3125,599.1094 129.0156,598.4844 Q129.7188,597.8594 130.0156,596.5313 Z " fill="#000000"/><text fill="#000000" font-family="Verdana" font-size="14" lengthAdjust="spacing" textLength="102" x="144.75" y="600.5679">InfoInputPanel</text><line style="stroke:#000000;stroke-width:1.0;" x1="13" x2="351" y1="609" y2="609"/><line style="stroke:#000000;stroke-width:1.0;" x1="13" x2="351" y1="617" y2="617"/><ellipse cx="23" cy="631.0073" fill="#FFFFFF" rx="3" ry="3" style="stroke:#000000;stroke-width:1.0;"/><text fill="#000000" font-family="Verdana" font-size="14" lengthAdjust="spacing" text-decoration="underline" textLength="266" x="30" y="635.0752">isEmptyTextField(JTextField): boolean</text><ellipse cx="23" cy="648.022" fill="#FFFFFF" rx="3" ry="3" style="stroke:#000000;stroke-width:1.0;"/><text fill="#000000" font-family="Verdana" font-size="14" lengthAdjust="spacing" text-decoration="underline" textLength="198" x="30" y="652.0898">getText(JTextField): String?</text><ellipse cx="23" cy="665.0366" fill="#FFFFFF" rx="3" ry="3" style="stroke:#000000;stroke-width:1.0;"/><text fill="#000000" font-family="Verdana" font-size="14" lengthAdjust="spacing" textLength="316" x="30" y="669.1045">addTextField(String, JTextField, String): void</text><ellipse cx="23" cy="682.0513" fill="#FFFFFF" rx="3" ry="3" style="stroke:#000000;stroke-width:1.0;"/><text fill="#000000" font-family="Verdana" font-size="14" lengthAdjust="spacing" textLength="263" x="30" y="686.1191">addTextField(String, JTextField): void</text><ellipse cx="23" cy="699.0659" fill="#FFFFFF" rx="3" ry="3" style="stroke:#000000;stroke-width:1.0;"/><text fill="#000000" font-family="Verdana" font-size="14" lengthAdjust="spacing" textLength="242" x="30" y="703.1338">addComponent(Component): void</text><ellipse cx="23" cy="716.0806" fill="#FFFFFF" rx="3" ry="3" style="stroke:#000000;stroke-width:1.0;"/><text fill="#000000" font-family="Verdana" font-size="14" lengthAdjust="spacing" textLength="120" x="30" y="720.1484">InfoInputPanel():</text></g><!--MD5=[10d005b2824a8fa3368078bdfcd23d5c]
class LoginFrame--><g id="elem_LoginFrame"><rect codeLine="14" fill="#FFFFFF" height="78.0293" id="LoginFrame" rx="2.5" ry="2.5" style="stroke:#000000;stroke-width:1.0;" width="274" x="199" y="305"/><ellipse cx="291.75" cy="319" fill="#FFFFFF" rx="9" ry="9" style="stroke:#000000;stroke-width:1.0;"/><path d="M294.5156,320.5313 L296.9063,321.2813 Q296.3594,323.2656 295.0781,324.2344 Q293.8125,325.2031 291.8438,325.2031 Q289.4219,325.2031 287.8594,323.5469 Q286.3125,321.8906 286.3125,319.0156 Q286.3125,315.9844 287.875,314.3125 Q289.4375,312.625 292,312.625 Q294.2344,312.625 295.625,313.9375 Q296.4531,314.7188 296.875,316.1875 L294.4375,316.7656 Q294.2188,315.8125 293.5313,315.2656 Q292.8594,314.7188 291.875,314.7188 Q290.5156,314.7188 289.6719,315.7031 Q288.8438,316.6719 288.8438,318.8438 Q288.8438,321.1406 289.6719,322.125 Q290.5,323.1094 291.8281,323.1094 Q292.8125,323.1094 293.5156,322.4844 Q294.2188,321.8594 294.5156,320.5313 Z " fill="#000000"/><text fill="#000000" font-family="Verdana" font-size="14" lengthAdjust="spacing" textLength="81" x="309.25" y="324.5679">LoginFrame</text><line style="stroke:#000000;stroke-width:1.0;" x1="200" x2="472" y1="333" y2="333"/><line style="stroke:#000000;stroke-width:1.0;" x1="200" x2="472" y1="341" y2="341"/><ellipse cx="210" cy="355.0073" fill="#FFFFFF" rx="3" ry="3" style="stroke:#000000;stroke-width:1.0;"/><text fill="#000000" font-family="Verdana" font-size="14" lengthAdjust="spacing" textLength="250" x="217" y="359.0752">actionPerformed(ActionEvent): void</text><ellipse cx="210" cy="372.022" fill="#FFFFFF" rx="3" ry="3" style="stroke:#000000;stroke-width:1.0;"/><text fill="#000000" font-family="Verdana" font-size="14" lengthAdjust="spacing" textLength="99" x="217" y="376.0898">LoginFrame():</text></g><!--MD5=[ab7bdeaf62125979bea3cef46e1ff06f]
class RegisterFrame--><g id="elem_RegisterFrame"><rect codeLine="18" fill="#FFFFFF" height="78.0293" id="RegisterFrame" rx="2.5" ry="2.5" style="stroke:#000000;stroke-width:1.0;" width="274" x="235" y="443"/><ellipse cx="317.75" cy="457" fill="#FFFFFF" rx="9" ry="9" style="stroke:#000000;stroke-width:1.0;"/><path d="M320.5156,458.5313 L322.9063,459.2813 Q322.3594,461.2656 321.0781,462.2344 Q319.8125,463.2031 317.8438,463.2031 Q315.4219,463.2031 313.8594,461.5469 Q312.3125,459.8906 312.3125,457.0156 Q312.3125,453.9844 313.875,452.3125 Q315.4375,450.625 318,450.625 Q320.2344,450.625 321.625,451.9375 Q322.4531,452.7188 322.875,454.1875 L320.4375,454.7656 Q320.2188,453.8125 319.5313,453.2656 Q318.8594,452.7188 317.875,452.7188 Q316.5156,452.7188 315.6719,453.7031 Q314.8438,454.6719 314.8438,456.8438 Q314.8438,459.1406 315.6719,460.125 Q316.5,461.1094 317.8281,461.1094 Q318.8125,461.1094 319.5156,460.4844 Q320.2188,459.8594 320.5156,458.5313 Z " fill="#000000"/><text fill="#000000" font-family="Verdana" font-size="14" lengthAdjust="spacing" textLength="101" x="335.25" y="462.5679">RegisterFrame</text><line style="stroke:#000000;stroke-width:1.0;" x1="236" x2="508" y1="471" y2="471"/><line style="stroke:#000000;stroke-width:1.0;" x1="236" x2="508" y1="479" y2="479"/><ellipse cx="246" cy="493.0073" fill="#FFFFFF" rx="3" ry="3" style="stroke:#000000;stroke-width:1.0;"/><text fill="#000000" font-family="Verdana" font-size="14" lengthAdjust="spacing" textLength="250" x="253" y="497.0752">actionPerformed(ActionEvent): void</text><ellipse cx="246" cy="510.022" fill="#FFFFFF" rx="3" ry="3" style="stroke:#000000;stroke-width:1.0;"/><text fill="#000000" font-family="Verdana" font-size="14" lengthAdjust="spacing" textLength="119" x="253" y="514.0898">RegisterFrame():</text></g><!--MD5=[e02df202a051ff6935d345e1a05029c5]
class ServerConnectionFrame--><g id="elem_ServerConnectionFrame"><rect codeLine="22" fill="#FFFFFF" height="78.0293" id="ServerConnectionFrame" rx="2.5" ry="2.5" style="stroke:#000000;stroke-width:1.0;" width="274" x="69" y="167"/><ellipse cx="118.25" cy="181" fill="#FFFFFF" rx="9" ry="9" style="stroke:#000000;stroke-width:1.0;"/><path d="M121.0156,182.5313 L123.4063,183.2813 Q122.8594,185.2656 121.5781,186.2344 Q120.3125,187.2031 118.3438,187.2031 Q115.9219,187.2031 114.3594,185.5469 Q112.8125,183.8906 112.8125,181.0156 Q112.8125,177.9844 114.375,176.3125 Q115.9375,174.625 118.5,174.625 Q120.7344,174.625 122.125,175.9375 Q122.9531,176.7188 123.375,178.1875 L120.9375,178.7656 Q120.7188,177.8125 120.0313,177.2656 Q119.3594,176.7188 118.375,176.7188 Q117.0156,176.7188 116.1719,177.7031 Q115.3438,178.6719 115.3438,180.8438 Q115.3438,183.1406 116.1719,184.125 Q117,185.1094 118.3281,185.1094 Q119.3125,185.1094 120.0156,184.4844 Q120.7188,183.8594 121.0156,182.5313 Z " fill="#000000"/><text fill="#000000" font-family="Verdana" font-size="14" lengthAdjust="spacing" textLength="168" x="135.75" y="186.5679">ServerConnectionFrame</text><line style="stroke:#000000;stroke-width:1.0;" x1="70" x2="342" y1="195" y2="195"/><line style="stroke:#000000;stroke-width:1.0;" x1="70" x2="342" y1="203" y2="203"/><ellipse cx="80" cy="217.0073" fill="#FFFFFF" rx="3" ry="3" style="stroke:#000000;stroke-width:1.0;"/><text fill="#000000" font-family="Verdana" font-size="14" lengthAdjust="spacing" textLength="250" x="87" y="221.0752">actionPerformed(ActionEvent): void</text><ellipse cx="80" cy="234.022" fill="#FFFFFF" rx="3" ry="3" style="stroke:#000000;stroke-width:1.0;"/><text fill="#000000" font-family="Verdana" font-size="14" lengthAdjust="spacing" textLength="186" x="87" y="238.0898">ServerConnectionFrame():</text></g><!--MD5=[a92bc39e1037cb73009bf70a7d660131]
class SocialApp--><g id="elem_SocialApp"><rect codeLine="26" fill="#FFFFFF" height="95.0439" id="SocialApp" rx="2.5" ry="2.5" style="stroke:#000000;stroke-width:1.0;" width="185" x="113.5" y="12"/><ellipse cx="168.25" cy="26" fill="#FFFFFF" rx="9" ry="9" style="stroke:#000000;stroke-width:1.0;"/><path d="M171.0156,27.5313 L173.4063,28.2813 Q172.8594,30.2656 171.5781,31.2344 Q170.3125,32.2031 168.3438,32.2031 Q165.9219,32.2031 164.3594,30.5469 Q162.8125,28.8906 162.8125,26.0156 Q162.8125,22.9844 164.375,21.3125 Q165.9375,19.625 168.5,19.625 Q170.7344,19.625 172.125,20.9375 Q172.9531,21.7188 173.375,23.1875 L170.9375,23.7656 Q170.7188,22.8125 170.0313,22.2656 Q169.3594,21.7188 168.375,21.7188 Q167.0156,21.7188 166.1719,22.7031 Q165.3438,23.6719 165.3438,25.8438 Q165.3438,28.1406 166.1719,29.125 Q167,30.1094 168.3281,30.1094 Q169.3125,30.1094 170.0156,29.4844 Q170.7188,28.8594 171.0156,27.5313 Z " fill="#000000"/><text fill="#000000" font-family="Verdana" font-size="14" lengthAdjust="spacing" textLength="68" x="185.75" y="31.5679">SocialApp</text><line style="stroke:#000000;stroke-width:1.0;" x1="114.5" x2="297.5" y1="40" y2="40"/><line style="stroke:#000000;stroke-width:1.0;" x1="114.5" x2="297.5" y1="48" y2="48"/><ellipse cx="124.5" cy="62.0073" fill="#FFFFFF" rx="3" ry="3" style="stroke:#000000;stroke-width:1.0;"/><text fill="#000000" font-family="Verdana" font-size="14" lengthAdjust="spacing" text-decoration="underline" textLength="156" x="131.5" y="66.0752">setDefaultFont(): void</text><ellipse cx="124.5" cy="79.022" fill="#FFFFFF" rx="3" ry="3" style="stroke:#000000;stroke-width:1.0;"/><text fill="#000000" font-family="Verdana" font-size="14" lengthAdjust="spacing" text-decoration="underline" textLength="161" x="131.5" y="83.0898">setDefaultColor(): void</text><ellipse cx="124.5" cy="96.0366" fill="#FFFFFF" rx="3" ry="3" style="stroke:#000000;stroke-width:1.0;"/><text fill="#000000" font-family="Verdana" font-size="14" lengthAdjust="spacing" text-decoration="underline" textLength="140" x="131.5" y="100.1045">main(String[]): void</text></g><!--MD5=[04b19c80ace1d81e46f6323171fa8e36]
link SocialApp to ServerConnectionFrame--><g id="link_SocialApp_ServerConnectionFrame"><path codeLine="32" d="M206,107.06 C206,107.06 206,161.99 206,161.99 " fill="none" id="SocialApp-to-ServerConnectionFrame" style="stroke:#595959;stroke-width:1.0;stroke-dasharray:7.0,7.0;"/><polygon fill="#595959" points="206,166.99,210,157.99,206,161.99,202,157.99,206,166.99" style="stroke:#595959;stroke-width:1.0;"/><text fill="#000000" font-family="Verdana" font-size="13" lengthAdjust="spacing" textLength="43" x="162" y="131.5998">create</text></g><!--MD5=[330fdc395fab07adac6cce571036806f]
link ServerConnectionFrame to InfoInputPanel--><g id="link_ServerConnectionFrame_InfoInputPanel"><path codeLine="33" d="M134,245.36 C134,245.36 134,575.83 134,575.83 " fill="none" id="ServerConnectionFrame-to-InfoInputPanel" style="stroke:#595959;stroke-width:1.0;stroke-dasharray:7.0,7.0;"/><polygon fill="#595959" points="134,580.83,138,571.83,134,575.83,130,571.83,134,580.83" style="stroke:#595959;stroke-width:1.0;"/><text fill="#000000" font-family="Verdana" font-size="13" lengthAdjust="spacing" textLength="23" x="110" y="407.6698">use</text></g><!--MD5=[42859ec40862650ff8c7153494e324d9]
link ServerConnectionFrame to LoginFrame--><g id="link_ServerConnectionFrame_LoginFrame"><path codeLine="34" d="M271,245.18 C271,245.18 271,299.73 271,299.73 " fill="none" id="ServerConnectionFrame-to-LoginFrame" style="stroke:#595959;stroke-width:1.0;stroke-dasharray:7.0,7.0;"/><polygon fill="#595959" points="271,304.73,275,295.73,271,299.73,267,295.73,271,304.73" style="stroke:#595959;stroke-width:1.0;"/><text fill="#000000" font-family="Verdana" font-size="13" lengthAdjust="spacing" textLength="43" x="227" y="269.5198">create</text></g><!--MD5=[d3a1f0aad1dd6c0192feaf4d628d489f]
link LoginFrame to InfoInputPanel--><g id="link_LoginFrame_InfoInputPanel"><path codeLine="35" d="M217,383.26 C217,383.26 217,575.78 217,575.78 " fill="none" id="LoginFrame-to-InfoInputPanel" style="stroke:#595959;stroke-width:1.0;stroke-dasharray:7.0,7.0;"/><polygon fill="#595959" points="217,580.78,221,571.78,217,575.78,213,571.78,217,580.78" style="stroke:#595959;stroke-width:1.0;"/><text fill="#000000" font-family="Verdana" font-size="13" lengthAdjust="spacing" textLength="23" x="193" y="476.5898">use</text></g><!--MD5=[ed3459e2d0e78e77cef20fb4f24f45df]
link LoginFrame to RegisterFrame--><g id="link_LoginFrame_RegisterFrame"><path codeLine="36" d="M314.33,383.18 C314.33,383.18 314.33,437.73 314.33,437.73 " fill="none" id="LoginFrame-to-RegisterFrame" style="stroke:#595959;stroke-width:1.0;stroke-dasharray:7.0,7.0;"/><polygon fill="#595959" points="314.33,442.73,318.33,433.73,314.33,437.73,310.33,433.73,314.33,442.73" style="stroke:#595959;stroke-width:1.0;"/><text fill="#000000" font-family="Verdana" font-size="13" lengthAdjust="spacing" textLength="43" x="270.33" y="407.5198">create</text></g><!--MD5=[14377c26735c60154bc9dc9bda9d06a7]
link RegisterFrame to LoginFrame--><g id="link_RegisterFrame_LoginFrame"><path codeLine="38" d="M393.67,442.82 C393.67,442.82 393.67,388.27 393.67,388.27 " fill="none" id="RegisterFrame-to-LoginFrame" style="stroke:#595959;stroke-width:1.0;stroke-dasharray:7.0,7.0;"/><polygon fill="#595959" points="393.67,383.27,389.67,392.27,393.67,388.27,397.67,392.27,393.67,383.27" style="stroke:#595959;stroke-width:1.0;"/><text fill="#000000" font-family="Verdana" font-size="13" lengthAdjust="spacing" textLength="43" x="349.67" y="412.6198">create</text></g><!--MD5=[cccc13ddd8c1e67c69c002c4b290ea48]
link RegisterFrame to InfoInputPanel--><g id="link_RegisterFrame_InfoInputPanel"><path codeLine="37" d="M293.5,521.03 C293.5,521.03 293.5,575.94 293.5,575.94 " fill="none" id="RegisterFrame-to-InfoInputPanel" style="stroke:#595959;stroke-width:1.0;stroke-dasharray:7.0,7.0;"/><polygon fill="#595959" points="293.5,580.94,297.5,571.94,293.5,575.94,289.5,571.94,293.5,580.94" style="stroke:#595959;stroke-width:1.0;"/><text fill="#000000" font-family="Verdana" font-size="13" lengthAdjust="spacing" textLength="23" x="269.5" y="545.5498">use</text></g><!--MD5=[2ecf886a1daf4c5bdebc2f69dc7298e7]
@startuml client-start

!theme plain
top to bottom direction
skinparam linetype ortho

class InfoInputPanel {
  + {static} isEmptyTextField(JTextField): boolean
  + {static} getText(JTextField): String?
  + addTextField(String, JTextField, String): void
  + addTextField(String, JTextField): void
  + addComponent(Component): void
  + InfoInputPanel(): 
}
class LoginFrame {
  + actionPerformed(ActionEvent): void
  + LoginFrame(): 
}
class RegisterFrame {
  + actionPerformed(ActionEvent): void
  + RegisterFrame(): 
}
class ServerConnectionFrame {
  + actionPerformed(ActionEvent): void
  + ServerConnectionFrame(): 
}
class SocialApp {
  + {static} setDefaultFont(): void
  + {static} setDefaultColor(): void
  + {static} main(String[]): void
}

SocialApp              -[#595959,dashed]->  ServerConnectionFrame : "«create»"
ServerConnectionFrame  -[#595959,dashed]->  InfoInputPanel        : "«use»"
ServerConnectionFrame  -[#595959,dashed]->  LoginFrame            : "«create»"
LoginFrame             -[#595959,dashed]->  InfoInputPanel        : "«use»"
LoginFrame             -[#595959,dashed]->  RegisterFrame         : "«create»"
RegisterFrame          -[#595959,dashed]->  InfoInputPanel        : "«use»"
RegisterFrame          -[#595959,dashed]->  LoginFrame            : "«create»"
@enduml

@startuml client-start








<style>
  root {
    BackgroundColor white
    FontColor black
    FontName Verdana
    HyperLinkColor blue
    LineColor black
    LineThickness 1
    Margin 5
  }
  caption {
    LineThickness 0
  }
  footer {
    LineThickness 0
  }
  header {
    LineThickness 0
  }
  node {
    MaximumWidth 300
  }
  title {
    FontSize 22
    LineThickness 0
  }
</style>

skinparam ArrowLollipopColor black
skinparam BackgroundColor white
skinparam DefaultFontName Verdana
skinparam DefaultMonospacedFontName Courier
skinparam LifelineStrategy nosolid
skinparam ParticipantPadding 10
skinparam SequenceLifeLineBorderColor black
skinparam Shadowing false
skinparam UseBetaStyle true

skinparam Activity {
  BackgroundColor white
  BarColor black
  BorderColor black
  FontColor black
  FontName Verdana
}
skinparam Boundary {
  FontColor black
}
skinparam Box {
  Padding 5
}
skinparam CircledCharacter {
  FontColor black
  FontName Courier
  Radius 9
}
skinparam Class {
  BackgroundColor white
  BorderColor black
  FontColor black
  FontName Verdana
}
skinparam ClassAttribute {
  FontColor black
  FontName Verdana
}
skinparam ClassStereotype {
  FontColor black
  FontName Verdana
}
skinparam Footer {
  FontColor black
  FontName Verdana
}
skinparam Header {
  FontColor black
  FontName Verdana
}
skinparam Hyperlink {
  Color blue
}
skinparam IconPackage {
  Color black
  BackgroundColor white
}
skinparam IconPrivate {
  Color black
  BackgroundColor white
}
skinparam IconProtected {
  Color black
  BackgroundColor white
}
skinparam IconPublic {
  Color black
  BackgroundColor white
}
skinparam Note {
  FontColor black
  FontName Verdana
}
skinparam Object {
  BorderColor black
}
skinparam Package {
  BorderColor black
  FontColor black
  FontName Verdana
}
skinparam State {
  BackgroundColor white
  BorderColor black
}
skinparam StereotypeA {
  BackgroundColor white
  BorderColor black
}
skinparam StereotypeC {
  BackgroundColor white
  BorderColor black
}
skinparam StereotypeE {
  BackgroundColor white
  BorderColor black
}
skinparam StereotypeI {
  BackgroundColor white
  BorderColor black
}
skinparam StereotypeN {
  BackgroundColor white
  BorderColor black
}
skinparam UseCaseStereoType {
  FontColor black
  FontName Verdana
}
top to bottom direction
skinparam linetype ortho

class InfoInputPanel {
  + {static} isEmptyTextField(JTextField): boolean
  + {static} getText(JTextField): String?
  + addTextField(String, JTextField, String): void
  + addTextField(String, JTextField): void
  + addComponent(Component): void
  + InfoInputPanel(): 
}
class LoginFrame {
  + actionPerformed(ActionEvent): void
  + LoginFrame(): 
}
class RegisterFrame {
  + actionPerformed(ActionEvent): void
  + RegisterFrame(): 
}
class ServerConnectionFrame {
  + actionPerformed(ActionEvent): void
  + ServerConnectionFrame(): 
}
class SocialApp {
  + {static} setDefaultFont(): void
  + {static} setDefaultColor(): void
  + {static} main(String[]): void
}

SocialApp              -[#595959,dashed]->  ServerConnectionFrame : "«create»"
ServerConnectionFrame  -[#595959,dashed]->  InfoInputPanel        : "«use»"
ServerConnectionFrame  -[#595959,dashed]->  LoginFrame            : "«create»"
LoginFrame             -[#595959,dashed]->  InfoInputPanel        : "«use»"
LoginFrame             -[#595959,dashed]->  RegisterFrame         : "«create»"
RegisterFrame          -[#595959,dashed]->  InfoInputPanel        : "«use»"
RegisterFrame          -[#595959,dashed]->  LoginFrame            : "«create»"
@enduml

PlantUML version 1.2022.7(Tue Aug 23 01:01:30 CST 2022)
(GPL source distribution)
Java Runtime: Java(TM) SE Runtime Environment
JVM: Java HotSpot(TM) 64-Bit Server VM
Default Encoding: GBK
Language: zh
Country: CN
--></g></svg>