<?xml version="1.0" encoding="UTF-8" standalone="no"?><svg xmlns="http://www.w3.org/2000/svg" xmlns:xlink="http://www.w3.org/1999/xlink" contentStyleType="text/css" height="921px" preserveAspectRatio="none" style="width:1229px;height:921px;background:#FFFFFF;" version="1.1" viewBox="0 0 1229 921" width="1229px" zoomAndPan="magnify"><defs/><g><!--MD5=[0e788cc031a242dbf1fb2eb0f65f4e4b]
class AbstractUserItemPanel--><g id="elem_AbstractUserItemPanel"><rect codeLine="7" fill="#FFFFFF" height="78.0293" id="AbstractUserItemPanel" rx="2.5" ry="2.5" style="stroke:#000000;stroke-width:1.0;" width="211" x="842" y="836"/><ellipse cx="863.55" cy="850" fill="#FFFFFF" rx="9" ry="9" style="stroke:#000000;stroke-width:1.0;"/><path d="M870.2531,855 L867.5813,855 L866.5188,852.2344 L861.6594,852.2344 L860.6594,855 L858.05,855 L862.7844,842.8281 L865.3938,842.8281 L870.2531,855 Z M865.7375,850.1875 L864.0656,845.6719 L862.4094,850.1875 L865.7375,850.1875 Z " fill="#000000"/><text fill="#000000" font-family="Verdana" font-size="14" font-style="italic" lengthAdjust="spacing" textLength="164" x="877.45" y="855.5679">AbstractUserItemPanel</text><line style="stroke:#000000;stroke-width:1.0;" x1="843" x2="1052" y1="864" y2="864"/><line style="stroke:#000000;stroke-width:1.0;" x1="843" x2="1052" y1="872" y2="872"/><ellipse cx="853" cy="886.0073" fill="#FFFFFF" rx="3" ry="3" style="stroke:#000000;stroke-width:1.0;"/><text fill="#000000" font-family="Verdana" font-size="14" lengthAdjust="spacing" textLength="182" x="860" y="890.0752">addButton(JButton): void</text><ellipse cx="853" cy="903.022" fill="#FFFFFF" rx="3" ry="3" style="stroke:#000000;stroke-width:1.0;"/><text fill="#000000" font-family="Verdana" font-size="14" lengthAdjust="spacing" textLength="187" x="860" y="907.0898">setUsername(String): void</text></g><!--MD5=[ee825f31f5ab9113543526f93b81bbbe]
class DiscussionFrame--><g id="elem_DiscussionFrame"><rect codeLine="11" fill="#FFFFFF" height="163.1025" id="DiscussionFrame" rx="2.5" ry="2.5" style="stroke:#000000;stroke-width:1.0;" width="303" x="364" y="12"/><ellipse cx="452.75" cy="26" fill="#FFFFFF" rx="9" ry="9" style="stroke:#000000;stroke-width:1.0;"/><path d="M455.5156,27.5313 L457.9063,28.2813 Q457.3594,30.2656 456.0781,31.2344 Q454.8125,32.2031 452.8438,32.2031 Q450.4219,32.2031 448.8594,30.5469 Q447.3125,28.8906 447.3125,26.0156 Q447.3125,22.9844 448.875,21.3125 Q450.4375,19.625 453,19.625 Q455.2344,19.625 456.625,20.9375 Q457.4531,21.7188 457.875,23.1875 L455.4375,23.7656 Q455.2188,22.8125 454.5313,22.2656 Q453.8594,21.7188 452.875,21.7188 Q451.5156,21.7188 450.6719,22.7031 Q449.8438,23.6719 449.8438,25.8438 Q449.8438,28.1406 450.6719,29.125 Q451.5,30.1094 452.8281,30.1094 Q453.8125,30.1094 454.5156,29.4844 Q455.2188,28.8594 455.5156,27.5313 Z " fill="#000000"/><text fill="#000000" font-family="Verdana" font-size="14" lengthAdjust="spacing" textLength="118" x="470.25" y="31.5679">DiscussionFrame</text><line style="stroke:#000000;stroke-width:1.0;" x1="365" x2="666" y1="40" y2="40"/><line style="stroke:#000000;stroke-width:1.0;" x1="365" x2="666" y1="48" y2="48"/><ellipse cx="375" cy="62.0073" fill="#FFFFFF" rx="3" ry="3" style="stroke:#000000;stroke-width:1.0;"/><text fill="#000000" font-family="Verdana" font-size="14" lengthAdjust="spacing" textLength="154" x="382" y="66.0752">removeUser(int): void</text><ellipse cx="375" cy="79.022" fill="#FFFFFF" rx="3" ry="3" style="stroke:#000000;stroke-width:1.0;"/><text fill="#000000" font-family="Verdana" font-size="14" lengthAdjust="spacing" textLength="201" x="382" y="83.0898">updateUserListFrame(): void</text><ellipse cx="375" cy="96.0366" fill="#FFFFFF" rx="3" ry="3" style="stroke:#000000;stroke-width:1.0;"/><text fill="#000000" font-family="Verdana" font-size="14" lengthAdjust="spacing" textLength="234" x="382" y="100.1045">updateInviteFriendsFrame(): void</text><ellipse cx="375" cy="113.0513" fill="#FFFFFF" rx="3" ry="3" style="stroke:#000000;stroke-width:1.0;"/><text fill="#000000" font-family="Verdana" font-size="14" lengthAdjust="spacing" textLength="190" x="382" y="117.1191">showInviteResult(int): void</text><ellipse cx="375" cy="130.0659" fill="#FFFFFF" rx="3" ry="3" style="stroke:#000000;stroke-width:1.0;"/><text fill="#000000" font-family="Verdana" font-size="14" lengthAdjust="spacing" textLength="279" x="382" y="134.1338">updateDiscussion(DiscussionInfo): void</text><ellipse cx="375" cy="147.0806" fill="#FFFFFF" rx="3" ry="3" style="stroke:#000000;stroke-width:1.0;"/><text fill="#000000" font-family="Verdana" font-size="14" lengthAdjust="spacing" textLength="217" x="382" y="151.1484">addUser(UserDiscussion): void</text><ellipse cx="375" cy="164.0952" fill="#FFFFFF" rx="3" ry="3" style="stroke:#000000;stroke-width:1.0;"/><text fill="#000000" font-family="Verdana" font-size="14" lengthAdjust="spacing" textLength="136" x="382" y="168.1631">DiscussionFrame():</text></g><!--MD5=[3e226ad2e1328769ce553b4603432959]
class ChatPane--><g id="elem_ChatPane"><rect codeLine="20" fill="#FFFFFF" height="61.0146" id="ChatPane" rx="2.5" ry="2.5" style="stroke:#000000;stroke-width:1.0;" width="94" x="331.5" y="235"/><ellipse cx="344.5" cy="249" fill="#FFFFFF" rx="9" ry="9" style="stroke:#000000;stroke-width:1.0;"/><path d="M347.2656,250.5313 L349.6563,251.2813 Q349.1094,253.2656 347.8281,254.2344 Q346.5625,255.2031 344.5938,255.2031 Q342.1719,255.2031 340.6094,253.5469 Q339.0625,251.8906 339.0625,249.0156 Q339.0625,245.9844 340.625,244.3125 Q342.1875,242.625 344.75,242.625 Q346.9844,242.625 348.375,243.9375 Q349.2031,244.7188 349.625,246.1875 L347.1875,246.7656 Q346.9688,245.8125 346.2813,245.2656 Q345.6094,244.7188 344.625,244.7188 Q343.2656,244.7188 342.4219,245.7031 Q341.5938,246.6719 341.5938,248.8438 Q341.5938,251.1406 342.4219,252.125 Q343.25,253.1094 344.5781,253.1094 Q345.5625,253.1094 346.2656,252.4844 Q346.9688,251.8594 347.2656,250.5313 Z " fill="#000000"/><text fill="#000000" font-family="Verdana" font-size="14" lengthAdjust="spacing" textLength="66" x="356.5" y="254.5679">ChatPane</text><line style="stroke:#000000;stroke-width:1.0;" x1="332.5" x2="424.5" y1="263" y2="263"/><line style="stroke:#000000;stroke-width:1.0;" x1="332.5" x2="424.5" y1="271" y2="271"/><text fill="#000000" font-family="Verdana" font-size="14" lengthAdjust="spacing" textLength="15" x="337.5" y="289.0752">...</text></g><!--MD5=[38e38478744200eb6e352f57864403af]
class DrawPanel--><g id="elem_DrawPanel"><rect codeLine="24" fill="#FFFFFF" height="231.1611" id="DrawPanel" rx="2.5" ry="2.5" style="stroke:#000000;stroke-width:1.0;" width="270" x="30.5" y="545"/><ellipse cx="125.75" cy="559" fill="#FFFFFF" rx="9" ry="9" style="stroke:#000000;stroke-width:1.0;"/><path d="M128.5156,560.5313 L130.9063,561.2813 Q130.3594,563.2656 129.0781,564.2344 Q127.8125,565.2031 125.8438,565.2031 Q123.4219,565.2031 121.8594,563.5469 Q120.3125,561.8906 120.3125,559.0156 Q120.3125,555.9844 121.875,554.3125 Q123.4375,552.625 126,552.625 Q128.2344,552.625 129.625,553.9375 Q130.4531,554.7188 130.875,556.1875 L128.4375,556.7656 Q128.2188,555.8125 127.5313,555.2656 Q126.8594,554.7188 125.875,554.7188 Q124.5156,554.7188 123.6719,555.7031 Q122.8438,556.6719 122.8438,558.8438 Q122.8438,561.1406 123.6719,562.125 Q124.5,563.1094 125.8281,563.1094 Q126.8125,563.1094 127.5156,562.4844 Q128.2188,561.8594 128.5156,560.5313 Z " fill="#000000"/><text fill="#000000" font-family="Verdana" font-size="14" lengthAdjust="spacing" textLength="72" x="143.25" y="564.5679">DrawPanel</text><line style="stroke:#000000;stroke-width:1.0;" x1="31.5" x2="299.5" y1="573" y2="573"/><line style="stroke:#000000;stroke-width:1.0;" x1="31.5" x2="299.5" y1="581" y2="581"/><ellipse cx="41.5" cy="595.0073" fill="#FFFFFF" rx="3" ry="3" style="stroke:#000000;stroke-width:1.0;"/><text fill="#000000" font-family="Verdana" font-size="14" lengthAdjust="spacing" textLength="230" x="48.5" y="599.0752">paintComponent(Graphics): void</text><ellipse cx="41.5" cy="612.022" fill="#FFFFFF" rx="3" ry="3" style="stroke:#000000;stroke-width:1.0;"/><text fill="#000000" font-family="Verdana" font-size="14" lengthAdjust="spacing" textLength="124" x="48.5" y="616.0898">add(int, int): void</text><ellipse cx="41.5" cy="629.0366" fill="#FFFFFF" rx="3" ry="3" style="stroke:#000000;stroke-width:1.0;"/><text fill="#000000" font-family="Verdana" font-size="14" lengthAdjust="spacing" textLength="84" x="48.5" y="633.1045">clear(): void</text><ellipse cx="41.5" cy="646.0513" fill="#FFFFFF" rx="3" ry="3" style="stroke:#000000;stroke-width:1.0;"/><text fill="#000000" font-family="Verdana" font-size="14" lengthAdjust="spacing" textLength="244" x="48.5" y="650.1191">mouseDragged(MouseEvent): void</text><ellipse cx="41.5" cy="663.0659" fill="#FFFFFF" rx="3" ry="3" style="stroke:#000000;stroke-width:1.0;"/><text fill="#000000" font-family="Verdana" font-size="14" lengthAdjust="spacing" textLength="229" x="48.5" y="667.1338">mouseMoved(MouseEvent): void</text><ellipse cx="41.5" cy="680.0806" fill="#FFFFFF" rx="3" ry="3" style="stroke:#000000;stroke-width:1.0;"/><text fill="#000000" font-family="Verdana" font-size="14" lengthAdjust="spacing" textLength="246" x="48.5" y="684.1484">mouseReleased(MouseEvent): void</text><ellipse cx="41.5" cy="697.0952" fill="#FFFFFF" rx="3" ry="3" style="stroke:#000000;stroke-width:1.0;"/><text fill="#000000" font-family="Verdana" font-size="14" lengthAdjust="spacing" textLength="239" x="48.5" y="701.1631">mousePressed(MouseEvent): void</text><ellipse cx="41.5" cy="714.1099" fill="#FFFFFF" rx="3" ry="3" style="stroke:#000000;stroke-width:1.0;"/><text fill="#000000" font-family="Verdana" font-size="14" lengthAdjust="spacing" textLength="228" x="48.5" y="718.1777">mouseExited(MouseEvent): void</text><ellipse cx="41.5" cy="731.1245" fill="#FFFFFF" rx="3" ry="3" style="stroke:#000000;stroke-width:1.0;"/><text fill="#000000" font-family="Verdana" font-size="14" lengthAdjust="spacing" textLength="232" x="48.5" y="735.1924">mouseClicked(MouseEvent): void</text><ellipse cx="41.5" cy="748.1392" fill="#FFFFFF" rx="3" ry="3" style="stroke:#000000;stroke-width:1.0;"/><text fill="#000000" font-family="Verdana" font-size="14" lengthAdjust="spacing" textLength="239" x="48.5" y="752.207">mouseEntered(MouseEvent): void</text><ellipse cx="41.5" cy="765.1538" fill="#FFFFFF" rx="3" ry="3" style="stroke:#000000;stroke-width:1.0;"/><text fill="#000000" font-family="Verdana" font-size="14" lengthAdjust="spacing" textLength="90" x="48.5" y="769.2217">DrawPanel():</text></g><!--MD5=[f935db1b31830b38f4ab0212fe6f6a99]
class DiscussionUserItemPanel--><g id="elem_DiscussionUserItemPanel"><rect codeLine="37" fill="#FFFFFF" height="78.0293" id="DiscussionUserItemPanel" rx="2.5" ry="2.5" style="stroke:#000000;stroke-width:1.0;" width="274" x="553.5" y="381.5"/><ellipse cx="599.25" cy="395.5" fill="#FFFFFF" rx="9" ry="9" style="stroke:#000000;stroke-width:1.0;"/><path d="M602.0156,397.0313 L604.4063,397.7813 Q603.8594,399.7656 602.5781,400.7344 Q601.3125,401.7031 599.3438,401.7031 Q596.9219,401.7031 595.3594,400.0469 Q593.8125,398.3906 593.8125,395.5156 Q593.8125,392.4844 595.375,390.8125 Q596.9375,389.125 599.5,389.125 Q601.7344,389.125 603.125,390.4375 Q603.9531,391.2188 604.375,392.6875 L601.9375,393.2656 Q601.7188,392.3125 601.0313,391.7656 Q600.3594,391.2188 599.375,391.2188 Q598.0156,391.2188 597.1719,392.2031 Q596.3438,393.1719 596.3438,395.3438 Q596.3438,397.6406 597.1719,398.625 Q598,399.6094 599.3281,399.6094 Q600.3125,399.6094 601.0156,398.9844 Q601.7188,398.3594 602.0156,397.0313 Z " fill="#000000"/><text fill="#000000" font-family="Verdana" font-size="14" lengthAdjust="spacing" textLength="175" x="616.75" y="401.0679">DiscussionUserItemPanel</text><line style="stroke:#000000;stroke-width:1.0;" x1="554.5" x2="826.5" y1="409.5" y2="409.5"/><line style="stroke:#000000;stroke-width:1.0;" x1="554.5" x2="826.5" y1="417.5" y2="417.5"/><ellipse cx="564.5" cy="431.5073" fill="#FFFFFF" rx="3" ry="3" style="stroke:#000000;stroke-width:1.0;"/><text fill="#000000" font-family="Verdana" font-size="14" lengthAdjust="spacing" textLength="250" x="571.5" y="435.5752">actionPerformed(ActionEvent): void</text><ellipse cx="564.5" cy="448.522" fill="#FFFFFF" rx="3" ry="3" style="stroke:#000000;stroke-width:1.0;"/><text fill="#000000" font-family="Verdana" font-size="14" lengthAdjust="spacing" textLength="225" x="571.5" y="452.5898">UserItemPanel(UserDiscussion):</text></g><!--MD5=[e5736b18f782f75c1efae1d16d13b67a]
class DiscussionUsersPanel--><g id="elem_DiscussionUsersPanel"><rect codeLine="41" fill="#FFFFFF" height="61.0146" id="DiscussionUsersPanel" rx="2.5" ry="2.5" style="stroke:#000000;stroke-width:1.0;" width="385" x="498" y="235"/><ellipse cx="611.25" cy="249" fill="#FFFFFF" rx="9" ry="9" style="stroke:#000000;stroke-width:1.0;"/><path d="M614.0156,250.5313 L616.4063,251.2813 Q615.8594,253.2656 614.5781,254.2344 Q613.3125,255.2031 611.3438,255.2031 Q608.9219,255.2031 607.3594,253.5469 Q605.8125,251.8906 605.8125,249.0156 Q605.8125,245.9844 607.375,244.3125 Q608.9375,242.625 611.5,242.625 Q613.7344,242.625 615.125,243.9375 Q615.9531,244.7188 616.375,246.1875 L613.9375,246.7656 Q613.7188,245.8125 613.0313,245.2656 Q612.3594,244.7188 611.375,244.7188 Q610.0156,244.7188 609.1719,245.7031 Q608.3438,246.6719 608.3438,248.8438 Q608.3438,251.1406 609.1719,252.125 Q610,253.1094 611.3281,253.1094 Q612.3125,253.1094 613.0156,252.4844 Q613.7188,251.8594 614.0156,250.5313 Z " fill="#000000"/><text fill="#000000" font-family="Verdana" font-size="14" lengthAdjust="spacing" textLength="151" x="628.75" y="254.5679">DiscussionUsersPanel</text><line style="stroke:#000000;stroke-width:1.0;" x1="499" x2="882" y1="263" y2="263"/><line style="stroke:#000000;stroke-width:1.0;" x1="499" x2="882" y1="271" y2="271"/><ellipse cx="509" cy="285.0073" fill="#FFFFFF" rx="3" ry="3" style="stroke:#000000;stroke-width:1.0;"/><text fill="#000000" font-family="Verdana" font-size="14" lengthAdjust="spacing" textLength="361" x="516" y="289.0752">DiscussionUsersPanel(ArrayList&lt;UserDiscussion&gt;):</text></g><!--MD5=[0008db4b6987823470a8b48b039e9001]
class InviteUserItemPanel--><g id="elem_InviteUserItemPanel"><rect codeLine="44" fill="#FFFFFF" height="78.0293" id="InviteUserItemPanel" rx="2.5" ry="2.5" style="stroke:#000000;stroke-width:1.0;" width="274" x="905.5" y="621.5"/><ellipse cx="969.25" cy="635.5" fill="#FFFFFF" rx="9" ry="9" style="stroke:#000000;stroke-width:1.0;"/><path d="M972.0156,637.0313 L974.4063,637.7813 Q973.8594,639.7656 972.5781,640.7344 Q971.3125,641.7031 969.3438,641.7031 Q966.9219,641.7031 965.3594,640.0469 Q963.8125,638.3906 963.8125,635.5156 Q963.8125,632.4844 965.375,630.8125 Q966.9375,629.125 969.5,629.125 Q971.7344,629.125 973.125,630.4375 Q973.9531,631.2188 974.375,632.6875 L971.9375,633.2656 Q971.7188,632.3125 971.0313,631.7656 Q970.3594,631.2188 969.375,631.2188 Q968.0156,631.2188 967.1719,632.2031 Q966.3438,633.1719 966.3438,635.3438 Q966.3438,637.6406 967.1719,638.625 Q968,639.6094 969.3281,639.6094 Q970.3125,639.6094 971.0156,638.9844 Q971.7188,638.3594 972.0156,637.0313 Z " fill="#000000"/><text fill="#000000" font-family="Verdana" font-size="14" lengthAdjust="spacing" textLength="139" x="986.75" y="641.0679">InviteUserItemPanel</text><line style="stroke:#000000;stroke-width:1.0;" x1="906.5" x2="1178.5" y1="649.5" y2="649.5"/><line style="stroke:#000000;stroke-width:1.0;" x1="906.5" x2="1178.5" y1="657.5" y2="657.5"/><ellipse cx="916.5" cy="671.5073" fill="#FFFFFF" rx="3" ry="3" style="stroke:#000000;stroke-width:1.0;"/><text fill="#000000" font-family="Verdana" font-size="14" lengthAdjust="spacing" textLength="250" x="923.5" y="675.5752">actionPerformed(ActionEvent): void</text><ellipse cx="916.5" cy="688.522" fill="#FFFFFF" rx="3" ry="3" style="stroke:#000000;stroke-width:1.0;"/><text fill="#000000" font-family="Verdana" font-size="14" lengthAdjust="spacing" textLength="225" x="923.5" y="692.5898">UserItemPanel(UserDiscussion):</text></g><!--MD5=[0b0f7eb801212b65d8e6bd9312a04106]
class InviteFriendsPanel--><g id="elem_InviteFriendsPanel"><rect codeLine="48" fill="#FFFFFF" height="61.0146" id="InviteFriendsPanel" rx="2.5" ry="2.5" style="stroke:#000000;stroke-width:1.0;" width="360" x="862.5" y="390"/><ellipse cx="975.75" cy="404" fill="#FFFFFF" rx="9" ry="9" style="stroke:#000000;stroke-width:1.0;"/><path d="M978.5156,405.5313 L980.9063,406.2813 Q980.3594,408.2656 979.0781,409.2344 Q977.8125,410.2031 975.8438,410.2031 Q973.4219,410.2031 971.8594,408.5469 Q970.3125,406.8906 970.3125,404.0156 Q970.3125,400.9844 971.875,399.3125 Q973.4375,397.625 976,397.625 Q978.2344,397.625 979.625,398.9375 Q980.4531,399.7188 980.875,401.1875 L978.4375,401.7656 Q978.2188,400.8125 977.5313,400.2656 Q976.8594,399.7188 975.875,399.7188 Q974.5156,399.7188 973.6719,400.7031 Q972.8438,401.6719 972.8438,403.8438 Q972.8438,406.1406 973.6719,407.125 Q974.5,408.1094 975.8281,408.1094 Q976.8125,408.1094 977.5156,407.4844 Q978.2188,406.8594 978.5156,405.5313 Z " fill="#000000"/><text fill="#000000" font-family="Verdana" font-size="14" lengthAdjust="spacing" textLength="126" x="993.25" y="409.5679">InviteFriendsPanel</text><line style="stroke:#000000;stroke-width:1.0;" x1="863.5" x2="1221.5" y1="418" y2="418"/><line style="stroke:#000000;stroke-width:1.0;" x1="863.5" x2="1221.5" y1="426" y2="426"/><ellipse cx="873.5" cy="440.0073" fill="#FFFFFF" rx="3" ry="3" style="stroke:#000000;stroke-width:1.0;"/><text fill="#000000" font-family="Verdana" font-size="14" lengthAdjust="spacing" textLength="336" x="880.5" y="444.0752">InviteFriendsPanel(ArrayList&lt;UserDiscussion&gt;):</text></g><!--MD5=[ebb6dbb8479d50d8133fd411e7d44305]
class FasterScrollPane--><g id="elem_FasterScrollPane"><rect codeLine="51" fill="#FFFFFF" height="61.0146" id="FasterScrollPane" rx="2.5" ry="2.5" style="stroke:#000000;stroke-width:1.0;" width="239" x="870" y="63"/><ellipse cx="928.25" cy="77" fill="#FFFFFF" rx="9" ry="9" style="stroke:#000000;stroke-width:1.0;"/><path d="M931.0156,78.5313 L933.4063,79.2813 Q932.8594,81.2656 931.5781,82.2344 Q930.3125,83.2031 928.3438,83.2031 Q925.9219,83.2031 924.3594,81.5469 Q922.8125,79.8906 922.8125,77.0156 Q922.8125,73.9844 924.375,72.3125 Q925.9375,70.625 928.5,70.625 Q930.7344,70.625 932.125,71.9375 Q932.9531,72.7188 933.375,74.1875 L930.9375,74.7656 Q930.7188,73.8125 930.0313,73.2656 Q929.3594,72.7188 928.375,72.7188 Q927.0156,72.7188 926.1719,73.7031 Q925.3438,74.6719 925.3438,76.8438 Q925.3438,79.1406 926.1719,80.125 Q927,81.1094 928.3281,81.1094 Q929.3125,81.1094 930.0156,80.4844 Q930.7188,79.8594 931.0156,78.5313 Z " fill="#000000"/><text fill="#000000" font-family="Verdana" font-size="14" lengthAdjust="spacing" textLength="115" x="945.75" y="82.5679">FasterScrollPane</text><line style="stroke:#000000;stroke-width:1.0;" x1="871" x2="1108" y1="91" y2="91"/><line style="stroke:#000000;stroke-width:1.0;" x1="871" x2="1108" y1="99" y2="99"/><ellipse cx="881" cy="113.0073" fill="#FFFFFF" rx="3" ry="3" style="stroke:#000000;stroke-width:1.0;"/><text fill="#000000" font-family="Verdana" font-size="14" lengthAdjust="spacing" textLength="215" x="888" y="117.0752">FasterScrollPane(Component):</text></g><!--MD5=[ac42f2da5dc4cbc3d756aeab26d9754a]
class LoadingLabel--><g id="elem_LoadingLabel"><rect codeLine="54" fill="#FFFFFF" height="61.0146" id="LoadingLabel" rx="2.5" ry="2.5" style="stroke:#000000;stroke-width:1.0;" width="133" x="702" y="63"/><ellipse cx="721.3" cy="77" fill="#FFFFFF" rx="9" ry="9" style="stroke:#000000;stroke-width:1.0;"/><path d="M724.0656,78.5313 L726.4563,79.2813 Q725.9094,81.2656 724.6281,82.2344 Q723.3625,83.2031 721.3938,83.2031 Q718.9719,83.2031 717.4094,81.5469 Q715.8625,79.8906 715.8625,77.0156 Q715.8625,73.9844 717.425,72.3125 Q718.9875,70.625 721.55,70.625 Q723.7844,70.625 725.175,71.9375 Q726.0031,72.7188 726.425,74.1875 L723.9875,74.7656 Q723.7688,73.8125 723.0813,73.2656 Q722.4094,72.7188 721.425,72.7188 Q720.0656,72.7188 719.2219,73.7031 Q718.3938,74.6719 718.3938,76.8438 Q718.3938,79.1406 719.2219,80.125 Q720.05,81.1094 721.3781,81.1094 Q722.3625,81.1094 723.0656,80.4844 Q723.7688,79.8594 724.0656,78.5313 Z " fill="#000000"/><text fill="#000000" font-family="Verdana" font-size="14" lengthAdjust="spacing" textLength="91" x="734.7" y="82.5679">LoadingLabel</text><line style="stroke:#000000;stroke-width:1.0;" x1="703" x2="834" y1="91" y2="91"/><line style="stroke:#000000;stroke-width:1.0;" x1="703" x2="834" y1="99" y2="99"/><ellipse cx="713" cy="113.0073" fill="#FFFFFF" rx="3" ry="3" style="stroke:#000000;stroke-width:1.0;"/><text fill="#000000" font-family="Verdana" font-size="14" lengthAdjust="spacing" textLength="109" x="720" y="117.0752">LoadingLabel():</text></g><!--MD5=[1b854c81530655c9be378971e4009d96]
class PaintPanel--><g id="elem_PaintPanel"><rect codeLine="57" fill="#FFFFFF" height="129.0732" id="PaintPanel" rx="2.5" ry="2.5" style="stroke:#000000;stroke-width:1.0;" width="307" x="12" y="356"/><ellipse cx="126.75" cy="370" fill="#FFFFFF" rx="9" ry="9" style="stroke:#000000;stroke-width:1.0;"/><path d="M129.5156,371.5313 L131.9063,372.2813 Q131.3594,374.2656 130.0781,375.2344 Q128.8125,376.2031 126.8438,376.2031 Q124.4219,376.2031 122.8594,374.5469 Q121.3125,372.8906 121.3125,370.0156 Q121.3125,366.9844 122.875,365.3125 Q124.4375,363.625 127,363.625 Q129.2344,363.625 130.625,364.9375 Q131.4531,365.7188 131.875,367.1875 L129.4375,367.7656 Q129.2188,366.8125 128.5313,366.2656 Q127.8594,365.7188 126.875,365.7188 Q125.5156,365.7188 124.6719,366.7031 Q123.8438,367.6719 123.8438,369.8438 Q123.8438,372.1406 124.6719,373.125 Q125.5,374.1094 126.8281,374.1094 Q127.8125,374.1094 128.5156,373.4844 Q129.2188,372.8594 129.5156,371.5313 Z " fill="#000000"/><text fill="#000000" font-family="Verdana" font-size="14" lengthAdjust="spacing" textLength="70" x="144.25" y="375.5679">PaintPanel</text><line style="stroke:#000000;stroke-width:1.0;" x1="13" x2="318" y1="384" y2="384"/><line style="stroke:#000000;stroke-width:1.0;" x1="13" x2="318" y1="392" y2="392"/><ellipse cx="23" cy="406.0073" fill="#FFFFFF" rx="3" ry="3" style="stroke:#000000;stroke-width:1.0;"/><text fill="#000000" font-family="Verdana" font-size="14" lengthAdjust="spacing" textLength="283" x="30" y="410.0752">updateDrawList(ArrayList&lt;Draw&gt;): void</text><ellipse cx="23" cy="423.022" fill="#FFFFFF" rx="3" ry="3" style="stroke:#000000;stroke-width:1.0;"/><text fill="#000000" font-family="Verdana" font-size="14" lengthAdjust="spacing" textLength="250" x="30" y="427.0898">actionPerformed(ActionEvent): void</text><ellipse cx="23" cy="440.0366" fill="#FFFFFF" rx="3" ry="3" style="stroke:#000000;stroke-width:1.0;"/><text fill="#000000" font-family="Verdana" font-size="14" lengthAdjust="spacing" textLength="135" x="30" y="444.1045">receiveClear(): void</text><ellipse cx="23" cy="457.0513" fill="#FFFFFF" rx="3" ry="3" style="stroke:#000000;stroke-width:1.0;"/><text fill="#000000" font-family="Verdana" font-size="14" lengthAdjust="spacing" textLength="164" x="30" y="461.1191">receiveAdd(Draw): void</text><ellipse cx="23" cy="474.0659" fill="#FFFFFF" rx="3" ry="3" style="stroke:#000000;stroke-width:1.0;"/><text fill="#000000" font-family="Verdana" font-size="14" lengthAdjust="spacing" textLength="88" x="30" y="478.1338">PaintPanel():</text></g><!--MD5=[835cf4312292c282fb17b8e75ab735ba]
class PaintColorPanel--><g id="elem_PaintColorPanel"><rect codeLine="64" fill="#FFFFFF" height="95.0439" id="PaintColorPanel" rx="2.5" ry="2.5" style="stroke:#000000;stroke-width:1.0;" width="274" x="335.5" y="613"/><ellipse cx="415.25" cy="627" fill="#FFFFFF" rx="9" ry="9" style="stroke:#000000;stroke-width:1.0;"/><path d="M418.0156,628.5313 L420.4063,629.2813 Q419.8594,631.2656 418.5781,632.2344 Q417.3125,633.2031 415.3438,633.2031 Q412.9219,633.2031 411.3594,631.5469 Q409.8125,629.8906 409.8125,627.0156 Q409.8125,623.9844 411.375,622.3125 Q412.9375,620.625 415.5,620.625 Q417.7344,620.625 419.125,621.9375 Q419.9531,622.7188 420.375,624.1875 L417.9375,624.7656 Q417.7188,623.8125 417.0313,623.2656 Q416.3594,622.7188 415.375,622.7188 Q414.0156,622.7188 413.1719,623.7031 Q412.3438,624.6719 412.3438,626.8438 Q412.3438,629.1406 413.1719,630.125 Q414,631.1094 415.3281,631.1094 Q416.3125,631.1094 417.0156,630.4844 Q417.7188,629.8594 418.0156,628.5313 Z " fill="#000000"/><text fill="#000000" font-family="Verdana" font-size="14" lengthAdjust="spacing" textLength="107" x="432.75" y="632.5679">PaintColorPanel</text><line style="stroke:#000000;stroke-width:1.0;" x1="336.5" x2="608.5" y1="641" y2="641"/><line style="stroke:#000000;stroke-width:1.0;" x1="336.5" x2="608.5" y1="649" y2="649"/><ellipse cx="346.5" cy="663.0073" fill="#FFFFFF" rx="3" ry="3" style="stroke:#000000;stroke-width:1.0;"/><text fill="#000000" font-family="Verdana" font-size="14" lengthAdjust="spacing" textLength="154" x="353.5" y="667.0752">getPaintColor(): Color</text><ellipse cx="346.5" cy="680.022" fill="#FFFFFF" rx="3" ry="3" style="stroke:#000000;stroke-width:1.0;"/><text fill="#000000" font-family="Verdana" font-size="14" lengthAdjust="spacing" textLength="250" x="353.5" y="684.0898">actionPerformed(ActionEvent): void</text><ellipse cx="346.5" cy="697.0366" fill="#FFFFFF" rx="3" ry="3" style="stroke:#000000;stroke-width:1.0;"/><text fill="#000000" font-family="Verdana" font-size="14" lengthAdjust="spacing" textLength="125" x="353.5" y="701.1045">PaintColorPanel():</text></g><!--MD5=[1a4d913a4df316a7036c5c6aaec84a68]
class PaintWidthPanel--><g id="elem_PaintWidthPanel"><rect codeLine="69" fill="#FFFFFF" height="78.0293" id="PaintWidthPanel" rx="2.5" ry="2.5" style="stroke:#000000;stroke-width:1.0;" width="164" x="354.5" y="381.5"/><ellipse cx="378.3" cy="395.5" fill="#FFFFFF" rx="9" ry="9" style="stroke:#000000;stroke-width:1.0;"/><path d="M381.0656,397.0313 L383.4563,397.7813 Q382.9094,399.7656 381.6281,400.7344 Q380.3625,401.7031 378.3938,401.7031 Q375.9719,401.7031 374.4094,400.0469 Q372.8625,398.3906 372.8625,395.5156 Q372.8625,392.4844 374.425,390.8125 Q375.9875,389.125 378.55,389.125 Q380.7844,389.125 382.175,390.4375 Q383.0031,391.2188 383.425,392.6875 L380.9875,393.2656 Q380.7688,392.3125 380.0813,391.7656 Q379.4094,391.2188 378.425,391.2188 Q377.0656,391.2188 376.2219,392.2031 Q375.3938,393.1719 375.3938,395.3438 Q375.3938,397.6406 376.2219,398.625 Q377.05,399.6094 378.3781,399.6094 Q379.3625,399.6094 380.0656,398.9844 Q380.7688,398.3594 381.0656,397.0313 Z " fill="#000000"/><text fill="#000000" font-family="Verdana" font-size="14" lengthAdjust="spacing" textLength="112" x="392.7" y="401.0679">PaintWidthPanel</text><line style="stroke:#000000;stroke-width:1.0;" x1="355.5" x2="517.5" y1="409.5" y2="409.5"/><line style="stroke:#000000;stroke-width:1.0;" x1="355.5" x2="517.5" y1="417.5" y2="417.5"/><ellipse cx="365.5" cy="431.5073" fill="#FFFFFF" rx="3" ry="3" style="stroke:#000000;stroke-width:1.0;"/><text fill="#000000" font-family="Verdana" font-size="14" lengthAdjust="spacing" textLength="140" x="372.5" y="435.5752">getPaintWidth(): int</text><ellipse cx="365.5" cy="448.522" fill="#FFFFFF" rx="3" ry="3" style="stroke:#000000;stroke-width:1.0;"/><text fill="#000000" font-family="Verdana" font-size="14" lengthAdjust="spacing" textLength="130" x="372.5" y="452.5898">PaintWidthPanel():</text></g><!--MD5=[1fbb9459571cdf7aac16ec47c58c124c]
link DiscussionFrame to ChatPane--><g id="link_DiscussionFrame_ChatPane"><path codeLine="74" d="M394.75,187.22 C394.75,187.22 394.75,221.98 394.75,221.98 " fill="none" id="DiscussionFrame-ChatPane" style="stroke:#595959;stroke-width:1.0;"/><polygon fill="#595959" points="394.75,234.98,398.75,225.98,394.75,229.98,390.75,225.98,394.75,234.98" style="stroke:#595959;stroke-width:1.0;"/><line style="stroke:#595959;stroke-width:1.0;" x1="394.75" x2="394.75" y1="229.98" y2="221.98"/><polygon fill="none" points="394.75,175.22,390.75,181.22,394.75,187.22,398.75,181.22,394.75,175.22" style="stroke:#595959;stroke-width:1.0;"/><text fill="#000000" font-family="Verdana" font-size="13" lengthAdjust="spacing" textLength="8" x="375.6395" y="196.267">1</text></g><!--MD5=[37b2991a4eaf52bd984f63e68a238cc0]
link DiscussionFrame to PaintPanel--><g id="link_DiscussionFrame_PaintPanel"><path codeLine="75" d="M461.75,187.09 C461.75,187.09 461.75,373 461.75,373 C461.75,373 332.27,373 332.27,373 " fill="none" id="DiscussionFrame-PaintPanel" style="stroke:#595959;stroke-width:1.0;"/><polygon fill="#595959" points="319.27,373,328.27,377,324.27,373,328.27,369,319.27,373" style="stroke:#595959;stroke-width:1.0;"/><line style="stroke:#595959;stroke-width:1.0;" x1="324.27" x2="332.27" y1="373" y2="373"/><polygon fill="none" points="461.75,175.09,457.75,181.09,461.75,187.09,465.75,181.09,461.75,175.09" style="stroke:#595959;stroke-width:1.0;"/><text fill="#000000" font-family="Verdana" font-size="13" lengthAdjust="spacing" textLength="8" x="326.912" y="368.4233">1</text></g><!--MD5=[54dec6c5c7bca2284e622cd11b94b454]
link DiscussionFrame to DiscussionUsersPanel--><g id="link_DiscussionFrame_DiscussionUsersPanel"><path codeLine="76" d="M582.5,175.22 C582.5,175.22 582.5,229.98 582.5,229.98 " fill="none" id="DiscussionFrame-to-DiscussionUsersPanel" style="stroke:#595959;stroke-width:1.0;stroke-dasharray:7.0,7.0;"/><polygon fill="#595959" points="582.5,234.98,586.5,225.98,582.5,229.98,578.5,225.98,582.5,234.98" style="stroke:#595959;stroke-width:1.0;"/><text fill="#000000" font-family="Verdana" font-size="13" lengthAdjust="spacing" textLength="43" x="538.5" y="199.6698">create</text></g><!--MD5=[f3567163befa3ee2b8d4524fd9fade9e]
link DiscussionFrame to FasterScrollPane--><g id="link_DiscussionFrame_FasterScrollPane"><path codeLine="77" d="M667.03,141 C765.82,141 876.5,141 876.5,141 C876.5,141 876.5,129.12 876.5,129.12 " fill="none" id="DiscussionFrame-to-FasterScrollPane" style="stroke:#595959;stroke-width:1.0;stroke-dasharray:7.0,7.0;"/><polygon fill="#595959" points="876.5,124.12,872.5,133.12,876.5,129.12,880.5,133.12,876.5,124.12" style="stroke:#595959;stroke-width:1.0;"/><text fill="#000000" font-family="Verdana" font-size="13" lengthAdjust="spacing" textLength="23" x="753.7" y="138.0698">use</text></g><!--MD5=[9f3a0a59b2bd03f44f76ce30f99fff5b]
link DiscussionFrame to InviteFriendsPanel--><g id="link_DiscussionFrame_InviteFriendsPanel"><path codeLine="78" d="M667.2,158 C808.01,158 996,158 996,158 C996,158 996,384.87 996,384.87 " fill="none" id="DiscussionFrame-to-InviteFriendsPanel" style="stroke:#595959;stroke-width:1.0;stroke-dasharray:7.0,7.0;"/><polygon fill="#595959" points="996,389.87,1000,380.87,996,384.87,992,380.87,996,389.87" style="stroke:#595959;stroke-width:1.0;"/><text fill="#000000" font-family="Verdana" font-size="13" lengthAdjust="spacing" textLength="43" x="901.04" y="155.0698">create</text></g><!--MD5=[fbdc0c2b61016546c5c0c9508ba24bd4]
link DiscussionFrame to LoadingLabel--><g id="link_DiscussionFrame_LoadingLabel"><path codeLine="79" d="M667.05,94 C667.05,94 696.94,94 696.94,94 " fill="none" id="DiscussionFrame-to-LoadingLabel" style="stroke:#595959;stroke-width:1.0;stroke-dasharray:7.0,7.0;"/><polygon fill="#595959" points="701.94,94,692.94,90,696.94,94,692.94,98,701.94,94" style="stroke:#595959;stroke-width:1.0;"/><text fill="#000000" font-family="Verdana" font-size="13" lengthAdjust="spacing" textLength="23" x="676.74" y="108.0698">use</text></g><!--MD5=[cd5266c18d48424b6e9739604f683d1e]
link DiscussionUsersPanel to DiscussionUserItemPanel--><g id="link_DiscussionUsersPanel_DiscussionUserItemPanel"><path codeLine="80" d="M736.17,308.12 C736.17,308.12 736.17,368.39 736.17,368.39 " fill="none" id="DiscussionUsersPanel-DiscussionUserItemPanel" style="stroke:#595959;stroke-width:1.0;stroke-dasharray:7.0,7.0;"/><polygon fill="#595959" points="736.17,381.39,740.17,372.39,736.17,376.39,732.17,372.39,736.17,381.39" style="stroke:#595959;stroke-width:1.0;"/><line style="stroke:#595959;stroke-width:1.0;" x1="736.17" x2="736.17" y1="376.39" y2="368.39"/><polygon fill="#595959" points="736.17,296.12,732.17,302.12,736.17,308.12,740.17,302.12,736.17,296.12" style="stroke:#595959;stroke-width:1.0;"/><text fill="#000000" font-family="Verdana" font-size="13" lengthAdjust="spacing" textLength="9" x="735.6613" y="317.133">*</text></g><!--MD5=[3e9df6e0ab8d6e1db9ffbd950ddf9416]
reverse link DiscussionUserItemPanel to DiscussionUsersPanel--><g id="link_DiscussionUserItemPanel_DiscussionUsersPanel"><path codeLine="88" d="M644.83,366.39 C644.83,366.39 644.83,296.3 644.83,296.3 " fill="none" id="DiscussionUserItemPanel-backto-DiscussionUsersPanel" style="stroke:#820000;stroke-width:1.0;"/><ellipse cx="644.83" cy="373.39" fill="#FFFFFF" rx="8" ry="8" style="stroke:#820000;stroke-width:1.0;"/><line style="stroke:#820000;stroke-width:1.0;" x1="644.83" x2="644.83" y1="365.39" y2="381.39"/><line style="stroke:#820000;stroke-width:1.0;" x1="652.83" x2="636.83" y1="373.39" y2="373.39"/></g><!--MD5=[580e5066f5d235908ce56f61c6f20bee]
reverse link DrawPanel to PaintPanel--><g id="link_DrawPanel_PaintPanel"><path codeLine="81" d="M210.5,529.72 C210.5,529.72 210.5,485.13 210.5,485.13 " fill="none" id="DrawPanel-backto-PaintPanel" style="stroke:#820000;stroke-width:1.0;"/><ellipse cx="210.5" cy="536.72" fill="#FFFFFF" rx="8" ry="8" style="stroke:#820000;stroke-width:1.0;"/><line style="stroke:#820000;stroke-width:1.0;" x1="210.5" x2="210.5" y1="528.72" y2="544.72"/><line style="stroke:#820000;stroke-width:1.0;" x1="218.5" x2="202.5" y1="536.72" y2="536.72"/></g><!--MD5=[d6c6a1bf6e95a40516855456e5e3279b]
link PaintPanel to DrawPanel--><g id="link_PaintPanel_DrawPanel"><path codeLine="83" d="M120.5,497.13 C120.5,497.13 120.5,531.84 120.5,531.84 " fill="none" id="PaintPanel-DrawPanel" style="stroke:#595959;stroke-width:1.0;"/><polygon fill="#595959" points="120.5,544.84,124.5,535.84,120.5,539.84,116.5,535.84,120.5,544.84" style="stroke:#595959;stroke-width:1.0;"/><line style="stroke:#595959;stroke-width:1.0;" x1="120.5" x2="120.5" y1="539.84" y2="531.84"/><polygon fill="#595959" points="120.5,485.13,116.5,491.13,120.5,497.13,124.5,491.13,120.5,485.13" style="stroke:#595959;stroke-width:1.0;"/><text fill="#000000" font-family="Verdana" font-size="13" lengthAdjust="spacing" textLength="8" x="107.1406" y="506.1288">1</text></g><!--MD5=[89e2662cb43a408fb79cc8b53531a252]
link InviteFriendsPanel to InviteUserItemPanel--><g id="link_InviteFriendsPanel_InviteUserItemPanel"><path codeLine="82" d="M996.83,463.38 C996.83,463.38 996.83,608.38 996.83,608.38 " fill="none" id="InviteFriendsPanel-InviteUserItemPanel" style="stroke:#595959;stroke-width:1.0;stroke-dasharray:7.0,7.0;"/><polygon fill="#595959" points="996.83,621.38,1000.83,612.38,996.83,616.38,992.83,612.38,996.83,621.38" style="stroke:#595959;stroke-width:1.0;"/><line style="stroke:#595959;stroke-width:1.0;" x1="996.83" x2="996.83" y1="616.38" y2="608.38"/><polygon fill="#595959" points="996.83,451.38,992.83,457.38,996.83,463.38,1000.83,457.38,996.83,451.38" style="stroke:#595959;stroke-width:1.0;"/><text fill="#000000" font-family="Verdana" font-size="13" lengthAdjust="spacing" textLength="9" x="977.9528" y="472.0831">*</text></g><!--MD5=[f0c6cb836e0603b51c96b3b095fed7e5]
reverse link InviteUserItemPanel to InviteFriendsPanel--><g id="link_InviteUserItemPanel_InviteFriendsPanel"><path codeLine="89" d="M1088.17,606.41 C1088.17,606.41 1088.17,451.19 1088.17,451.19 " fill="none" id="InviteUserItemPanel-backto-InviteFriendsPanel" style="stroke:#820000;stroke-width:1.0;"/><ellipse cx="1088.17" cy="613.41" fill="#FFFFFF" rx="8" ry="8" style="stroke:#820000;stroke-width:1.0;"/><line style="stroke:#820000;stroke-width:1.0;" x1="1088.17" x2="1088.17" y1="605.41" y2="621.41"/><line style="stroke:#820000;stroke-width:1.0;" x1="1096.17" x2="1080.17" y1="613.41" y2="613.41"/></g><!--MD5=[fec75fc5b5276c2072d6dd2c12a6b618]
link PaintPanel to PaintColorPanel--><g id="link_PaintPanel_PaintColorPanel"><path codeLine="84" d="M331.14,473 C331.14,473 341.83,473 341.83,473 C341.83,473 341.83,599.7 341.83,599.7 " fill="none" id="PaintPanel-PaintColorPanel" style="stroke:#595959;stroke-width:1.0;"/><polygon fill="#595959" points="341.83,612.7,345.83,603.7,341.83,607.7,337.83,603.7,341.83,612.7" style="stroke:#595959;stroke-width:1.0;"/><line style="stroke:#595959;stroke-width:1.0;" x1="341.83" x2="341.83" y1="607.7" y2="599.7"/><polygon fill="#595959" points="319.14,473,325.14,477,331.14,473,325.14,469,319.14,473" style="stroke:#595959;stroke-width:1.0;"/><text fill="#000000" font-family="Verdana" font-size="13" lengthAdjust="spacing" textLength="8" x="319.1005" y="604.7627">1</text></g><!--MD5=[725c568a0dc71a726878705d4795d4cb]
link PaintPanel to PaintWidthPanel--><g id="link_PaintPanel_PaintWidthPanel"><path codeLine="85" d="M331.21,421 C331.21,421 341.43,421 341.43,421 " fill="none" id="PaintPanel-PaintWidthPanel" style="stroke:#595959;stroke-width:1.0;"/><polygon fill="#595959" points="354.43,421,345.43,417,349.43,421,345.43,425,354.43,421" style="stroke:#595959;stroke-width:1.0;"/><line style="stroke:#595959;stroke-width:1.0;" x1="349.43" x2="341.43" y1="421" y2="421"/><polygon fill="#595959" points="319.21,421,325.21,425,331.21,421,325.21,417,319.21,421" style="stroke:#595959;stroke-width:1.0;"/><text fill="#000000" font-family="Verdana" font-size="13" lengthAdjust="spacing" textLength="8" x="326.8491" y="418.7483">1</text></g><!--MD5=[34eda09cd70b612f693dbf4a27f8b2b2]
link DiscussionUserItemPanel to AbstractUserItemPanel--><g id="link_DiscussionUserItemPanel_AbstractUserItemPanel"><path codeLine="86" d="M827.68,456 C842.45,456 852.25,456 852.25,456 C852.25,456 852.25,815.96 852.25,815.96 " fill="none" id="DiscussionUserItemPanel-to-AbstractUserItemPanel" style="stroke:#000082;stroke-width:1.0;"/><polygon fill="none" points="859.25,815.96,852.25,835.96,845.25,815.96,859.25,815.96" style="stroke:#000082;stroke-width:1.0;"/></g><!--MD5=[7f64e99ca1546acf95c640f073f8c9b1]
link InviteUserItemPanel to AbstractUserItemPanel--><g id="link_InviteUserItemPanel_AbstractUserItemPanel"><path codeLine="87" d="M979.25,699.84 C979.25,699.84 979.25,815.91 979.25,815.91 " fill="none" id="InviteUserItemPanel-to-AbstractUserItemPanel" style="stroke:#000082;stroke-width:1.0;"/><polygon fill="none" points="986.25,815.91,979.25,835.91,972.25,815.91,986.25,815.91" style="stroke:#000082;stroke-width:1.0;"/></g><!--MD5=[bd0d44b635615aef349e5770c08eb6db]
link DiscussionUsersPanel to InviteFriendsPanel--><!--MD5=[3dfd6793d9211820beee052c8c583c17]
link ChatPane to PaintPanel--><!--MD5=[585213a7123e82130d99ebb980e1e28f]
@startuml client-discussion

!theme plain
top to bottom direction
skinparam linetype ortho
set namespaceSeparator none

abstract class AbstractUserItemPanel {
  + addButton(JButton): void
  + setUsername(String): void
}
class DiscussionFrame {
  + removeUser(int): void
  + updateUserListFrame(): void
  + updateInviteFriendsFrame(): void
  + showInviteResult(int): void
  + updateDiscussion(DiscussionInfo): void
  + addUser(UserDiscussion): void
  + DiscussionFrame():
}
class ChatPane {
  - - -
  ...
}
class DrawPanel {
  + paintComponent(Graphics): void
  + add(int, int): void
  + clear(): void
  + mouseDragged(MouseEvent): void
  + mouseMoved(MouseEvent): void
  + mouseReleased(MouseEvent): void
  + mousePressed(MouseEvent): void
  + mouseExited(MouseEvent): void
  + mouseClicked(MouseEvent): void
  + mouseEntered(MouseEvent): void
  + DrawPanel():
}
class DiscussionUserItemPanel {
  + actionPerformed(ActionEvent): void
  + UserItemPanel(UserDiscussion):
}
class DiscussionUsersPanel {
  + DiscussionUsersPanel(ArrayList<UserDiscussion>):
}
class InviteUserItemPanel {
  + actionPerformed(ActionEvent): void
  + UserItemPanel(UserDiscussion):
}
class InviteFriendsPanel {
  + InviteFriendsPanel(ArrayList<UserDiscussion>):
}
class FasterScrollPane {
  + FasterScrollPane(Component):
}
class LoadingLabel {
  + LoadingLabel():
}
class PaintPanel {
  + updateDrawList(ArrayList<Draw>): void
  + actionPerformed(ActionEvent): void
  + receiveClear(): void
  + receiveAdd(Draw): void
  + PaintPanel():
}
class PaintColorPanel {
  + getPaintColor(): Color
  + actionPerformed(ActionEvent): void
  + PaintColorPanel():
}
class PaintWidthPanel {
  + getPaintWidth(): int
  + PaintWidthPanel():
}

DiscussionFrame        o-[#595959,plain]-> "1" ChatPane
DiscussionFrame        o-[#595959,plain]-> "1" PaintPanel
DiscussionFrame        -[#595959,dashed]->  DiscussionUsersPanel    : "«create»"
DiscussionFrame        -[#595959,dashed]right->  FasterScrollPane        : "«use»"
DiscussionFrame        -[#595959,dashed]->  InviteFriendsPanel      : "«create»"
DiscussionFrame        -[#595959,dashed]right->  LoadingLabel            : "«use»"
DiscussionUsersPanel   *-[#595959,dashed]-> "*" DiscussionUserItemPanel
DrawPanel              +-[#820000,plain]-  PaintPanel
InviteFriendsPanel     *-[#595959,dashed]-> "*" InviteUserItemPanel
PaintPanel             *-[#595959,plain]-> "1" DrawPanel
PaintPanel             *-[#595959,plain]-> "1" PaintColorPanel
PaintPanel             *-[#595959,plain]right-> "1" PaintWidthPanel
DiscussionUserItemPanel      -[#000082,plain]-^  AbstractUserItemPanel
InviteUserItemPanel          -[#000082,plain]-^  AbstractUserItemPanel
DiscussionUserItemPanel      +-[#820000,plain]-  DiscussionUsersPanel
InviteUserItemPanel          +-[#820000,plain]-  InviteFriendsPanel
DiscussionUsersPanel -[hidden]- InviteFriendsPanel
ChatPane -[hidden]- PaintPanel
@enduml

@startuml client-discussion








<style>
  root {
    BackgroundColor white
    FontColor black
    FontName Verdana
    HyperLinkColor blue
    LineColor black
    LineThickness 1
    Margin 5
  }
  caption {
    LineThickness 0
  }
  footer {
    LineThickness 0
  }
  header {
    LineThickness 0
  }
  node {
    MaximumWidth 300
  }
  title {
    FontSize 22
    LineThickness 0
  }
</style>

skinparam ArrowLollipopColor black
skinparam BackgroundColor white
skinparam DefaultFontName Verdana
skinparam DefaultMonospacedFontName Courier
skinparam LifelineStrategy nosolid
skinparam ParticipantPadding 10
skinparam SequenceLifeLineBorderColor black
skinparam Shadowing false
skinparam UseBetaStyle true

skinparam Activity {
  BackgroundColor white
  BarColor black
  BorderColor black
  FontColor black
  FontName Verdana
}
skinparam Boundary {
  FontColor black
}
skinparam Box {
  Padding 5
}
skinparam CircledCharacter {
  FontColor black
  FontName Courier
  Radius 9
}
skinparam Class {
  BackgroundColor white
  BorderColor black
  FontColor black
  FontName Verdana
}
skinparam ClassAttribute {
  FontColor black
  FontName Verdana
}
skinparam ClassStereotype {
  FontColor black
  FontName Verdana
}
skinparam Footer {
  FontColor black
  FontName Verdana
}
skinparam Header {
  FontColor black
  FontName Verdana
}
skinparam Hyperlink {
  Color blue
}
skinparam IconPackage {
  Color black
  BackgroundColor white
}
skinparam IconPrivate {
  Color black
  BackgroundColor white
}
skinparam IconProtected {
  Color black
  BackgroundColor white
}
skinparam IconPublic {
  Color black
  BackgroundColor white
}
skinparam Note {
  FontColor black
  FontName Verdana
}
skinparam Object {
  BorderColor black
}
skinparam Package {
  BorderColor black
  FontColor black
  FontName Verdana
}
skinparam State {
  BackgroundColor white
  BorderColor black
}
skinparam StereotypeA {
  BackgroundColor white
  BorderColor black
}
skinparam StereotypeC {
  BackgroundColor white
  BorderColor black
}
skinparam StereotypeE {
  BackgroundColor white
  BorderColor black
}
skinparam StereotypeI {
  BackgroundColor white
  BorderColor black
}
skinparam StereotypeN {
  BackgroundColor white
  BorderColor black
}
skinparam UseCaseStereoType {
  FontColor black
  FontName Verdana
}
top to bottom direction
skinparam linetype ortho
set namespaceSeparator none

abstract class AbstractUserItemPanel {
  + addButton(JButton): void
  + setUsername(String): void
}
class DiscussionFrame {
  + removeUser(int): void
  + updateUserListFrame(): void
  + updateInviteFriendsFrame(): void
  + showInviteResult(int): void
  + updateDiscussion(DiscussionInfo): void
  + addUser(UserDiscussion): void
  + DiscussionFrame():
}
class ChatPane {
  - - -
  ...
}
class DrawPanel {
  + paintComponent(Graphics): void
  + add(int, int): void
  + clear(): void
  + mouseDragged(MouseEvent): void
  + mouseMoved(MouseEvent): void
  + mouseReleased(MouseEvent): void
  + mousePressed(MouseEvent): void
  + mouseExited(MouseEvent): void
  + mouseClicked(MouseEvent): void
  + mouseEntered(MouseEvent): void
  + DrawPanel():
}
class DiscussionUserItemPanel {
  + actionPerformed(ActionEvent): void
  + UserItemPanel(UserDiscussion):
}
class DiscussionUsersPanel {
  + DiscussionUsersPanel(ArrayList<UserDiscussion>):
}
class InviteUserItemPanel {
  + actionPerformed(ActionEvent): void
  + UserItemPanel(UserDiscussion):
}
class InviteFriendsPanel {
  + InviteFriendsPanel(ArrayList<UserDiscussion>):
}
class FasterScrollPane {
  + FasterScrollPane(Component):
}
class LoadingLabel {
  + LoadingLabel():
}
class PaintPanel {
  + updateDrawList(ArrayList<Draw>): void
  + actionPerformed(ActionEvent): void
  + receiveClear(): void
  + receiveAdd(Draw): void
  + PaintPanel():
}
class PaintColorPanel {
  + getPaintColor(): Color
  + actionPerformed(ActionEvent): void
  + PaintColorPanel():
}
class PaintWidthPanel {
  + getPaintWidth(): int
  + PaintWidthPanel():
}

DiscussionFrame        o-[#595959,plain]-> "1" ChatPane
DiscussionFrame        o-[#595959,plain]-> "1" PaintPanel
DiscussionFrame        -[#595959,dashed]->  DiscussionUsersPanel    : "«create»"
DiscussionFrame        -[#595959,dashed]right->  FasterScrollPane        : "«use»"
DiscussionFrame        -[#595959,dashed]->  InviteFriendsPanel      : "«create»"
DiscussionFrame        -[#595959,dashed]right->  LoadingLabel            : "«use»"
DiscussionUsersPanel   *-[#595959,dashed]-> "*" DiscussionUserItemPanel
DrawPanel              +-[#820000,plain]-  PaintPanel
InviteFriendsPanel     *-[#595959,dashed]-> "*" InviteUserItemPanel
PaintPanel             *-[#595959,plain]-> "1" DrawPanel
PaintPanel             *-[#595959,plain]-> "1" PaintColorPanel
PaintPanel             *-[#595959,plain]right-> "1" PaintWidthPanel
DiscussionUserItemPanel      -[#000082,plain]-^  AbstractUserItemPanel
InviteUserItemPanel          -[#000082,plain]-^  AbstractUserItemPanel
DiscussionUserItemPanel      +-[#820000,plain]-  DiscussionUsersPanel
InviteUserItemPanel          +-[#820000,plain]-  InviteFriendsPanel
DiscussionUsersPanel -[hidden]- InviteFriendsPanel
ChatPane -[hidden]- PaintPanel
@enduml

PlantUML version 1.2022.7(Tue Aug 23 01:01:30 CST 2022)
(GPL source distribution)
Java Runtime: Java(TM) SE Runtime Environment
JVM: Java HotSpot(TM) 64-Bit Server VM
Default Encoding: GBK
Language: zh
Country: CN
--></g></svg>