<?xml version="1.0" encoding="UTF-8" standalone="no"?><svg xmlns="http://www.w3.org/2000/svg" xmlns:xlink="http://www.w3.org/1999/xlink" contentStyleType="text/css" height="921px" preserveAspectRatio="none" style="width:1219px;height:921px;background:#FFFFFF;" version="1.1" viewBox="0 0 1219 921" width="1219px" zoomAndPan="magnify"><defs/><g><!--MD5=[0e788cc031a242dbf1fb2eb0f65f4e4b]
class AbstractUserItemPanel--><g id="elem_AbstractUserItemPanel"><rect codeLine="7" fill="#FFFFFF" height="78.0293" id="AbstractUserItemPanel" rx="2.5" ry="2.5" style="stroke:#000000;stroke-width:1.0;" width="211" x="832" y="836"/><ellipse cx="853.55" cy="850" fill="#FFFFFF" rx="9" ry="9" style="stroke:#000000;stroke-width:1.0;"/><path d="M860.2531,855 L857.5813,855 L856.5188,852.2344 L851.6594,852.2344 L850.6594,855 L848.05,855 L852.7844,842.8281 L855.3938,842.8281 L860.2531,855 Z M855.7375,850.1875 L854.0656,845.6719 L852.4094,850.1875 L855.7375,850.1875 Z " fill="#000000"/><text fill="#000000" font-family="Verdana" font-size="14" font-style="italic" lengthAdjust="spacing" textLength="164" x="867.45" y="855.5679">AbstractUserItemPanel</text><line style="stroke:#000000;stroke-width:1.0;" x1="833" x2="1042" y1="864" y2="864"/><line style="stroke:#000000;stroke-width:1.0;" x1="833" x2="1042" y1="872" y2="872"/><ellipse cx="843" cy="886.0073" fill="#FFFFFF" rx="3" ry="3" style="stroke:#000000;stroke-width:1.0;"/><text fill="#000000" font-family="Verdana" font-size="14" lengthAdjust="spacing" textLength="182" x="850" y="890.0752">addButton(JButton): void</text><ellipse cx="843" cy="903.022" fill="#FFFFFF" rx="3" ry="3" style="stroke:#000000;stroke-width:1.0;"/><text fill="#000000" font-family="Verdana" font-size="14" lengthAdjust="spacing" textLength="187" x="850" y="907.0898">setUsername(String): void</text></g><!--MD5=[ee825f31f5ab9113543526f93b81bbbe]
class DiscussionFrame--><g id="elem_DiscussionFrame"><rect codeLine="11" fill="#FFFFFF" height="163.1025" id="DiscussionFrame" rx="2.5" ry="2.5" style="stroke:#000000;stroke-width:1.0;" width="303" x="356" y="12"/><ellipse cx="444.75" cy="26" fill="#FFFFFF" rx="9" ry="9" style="stroke:#000000;stroke-width:1.0;"/><path d="M447.5156,27.5313 L449.9063,28.2813 Q449.3594,30.2656 448.0781,31.2344 Q446.8125,32.2031 444.8438,32.2031 Q442.4219,32.2031 440.8594,30.5469 Q439.3125,28.8906 439.3125,26.0156 Q439.3125,22.9844 440.875,21.3125 Q442.4375,19.625 445,19.625 Q447.2344,19.625 448.625,20.9375 Q449.4531,21.7188 449.875,23.1875 L447.4375,23.7656 Q447.2188,22.8125 446.5313,22.2656 Q445.8594,21.7188 444.875,21.7188 Q443.5156,21.7188 442.6719,22.7031 Q441.8438,23.6719 441.8438,25.8438 Q441.8438,28.1406 442.6719,29.125 Q443.5,30.1094 444.8281,30.1094 Q445.8125,30.1094 446.5156,29.4844 Q447.2188,28.8594 447.5156,27.5313 Z " fill="#000000"/><text fill="#000000" font-family="Verdana" font-size="14" lengthAdjust="spacing" textLength="118" x="462.25" y="31.5679">DiscussionFrame</text><line style="stroke:#000000;stroke-width:1.0;" x1="357" x2="658" y1="40" y2="40"/><line style="stroke:#000000;stroke-width:1.0;" x1="357" x2="658" y1="48" y2="48"/><ellipse cx="367" cy="62.0073" fill="#FFFFFF" rx="3" ry="3" style="stroke:#000000;stroke-width:1.0;"/><text fill="#000000" font-family="Verdana" font-size="14" lengthAdjust="spacing" textLength="154" x="374" y="66.0752">removeUser(int): void</text><ellipse cx="367" cy="79.022" fill="#FFFFFF" rx="3" ry="3" style="stroke:#000000;stroke-width:1.0;"/><text fill="#000000" font-family="Verdana" font-size="14" lengthAdjust="spacing" textLength="201" x="374" y="83.0898">updateUserListFrame(): void</text><ellipse cx="367" cy="96.0366" fill="#FFFFFF" rx="3" ry="3" style="stroke:#000000;stroke-width:1.0;"/><text fill="#000000" font-family="Verdana" font-size="14" lengthAdjust="spacing" textLength="234" x="374" y="100.1045">updateInviteFriendsFrame(): void</text><ellipse cx="367" cy="113.0513" fill="#FFFFFF" rx="3" ry="3" style="stroke:#000000;stroke-width:1.0;"/><text fill="#000000" font-family="Verdana" font-size="14" lengthAdjust="spacing" textLength="190" x="374" y="117.1191">showInviteResult(int): void</text><ellipse cx="367" cy="130.0659" fill="#FFFFFF" rx="3" ry="3" style="stroke:#000000;stroke-width:1.0;"/><text fill="#000000" font-family="Verdana" font-size="14" lengthAdjust="spacing" textLength="279" x="374" y="134.1338">updateDiscussion(DiscussionInfo): void</text><ellipse cx="367" cy="147.0806" fill="#FFFFFF" rx="3" ry="3" style="stroke:#000000;stroke-width:1.0;"/><text fill="#000000" font-family="Verdana" font-size="14" lengthAdjust="spacing" textLength="217" x="374" y="151.1484">addUser(UserDiscussion): void</text><ellipse cx="367" cy="164.0952" fill="#FFFFFF" rx="3" ry="3" style="stroke:#000000;stroke-width:1.0;"/><text fill="#000000" font-family="Verdana" font-size="14" lengthAdjust="spacing" textLength="136" x="374" y="168.1631">DiscussionFrame():</text></g><!--MD5=[3e226ad2e1328769ce553b4603432959]
class ChatPane--><g id="elem_ChatPane"><rect codeLine="20" fill="#FFFFFF" height="61.0146" id="ChatPane" rx="2.5" ry="2.5" style="stroke:#000000;stroke-width:1.0;" width="94" x="323.5" y="235"/><ellipse cx="336.5" cy="249" fill="#FFFFFF" rx="9" ry="9" style="stroke:#000000;stroke-width:1.0;"/><path d="M339.2656,250.5313 L341.6563,251.2813 Q341.1094,253.2656 339.8281,254.2344 Q338.5625,255.2031 336.5938,255.2031 Q334.1719,255.2031 332.6094,253.5469 Q331.0625,251.8906 331.0625,249.0156 Q331.0625,245.9844 332.625,244.3125 Q334.1875,242.625 336.75,242.625 Q338.9844,242.625 340.375,243.9375 Q341.2031,244.7188 341.625,246.1875 L339.1875,246.7656 Q338.9688,245.8125 338.2813,245.2656 Q337.6094,244.7188 336.625,244.7188 Q335.2656,244.7188 334.4219,245.7031 Q333.5938,246.6719 333.5938,248.8438 Q333.5938,251.1406 334.4219,252.125 Q335.25,253.1094 336.5781,253.1094 Q337.5625,253.1094 338.2656,252.4844 Q338.9688,251.8594 339.2656,250.5313 Z " fill="#000000"/><text fill="#000000" font-family="Verdana" font-size="14" lengthAdjust="spacing" textLength="66" x="348.5" y="254.5679">ChatPane</text><line style="stroke:#000000;stroke-width:1.0;" x1="324.5" x2="416.5" y1="263" y2="263"/><line style="stroke:#000000;stroke-width:1.0;" x1="324.5" x2="416.5" y1="271" y2="271"/><text fill="#000000" font-family="Verdana" font-size="14" lengthAdjust="spacing" textLength="15" x="329.5" y="289.0752">...</text></g><!--MD5=[38e38478744200eb6e352f57864403af]
class DrawPanel--><g id="elem_DrawPanel"><rect codeLine="24" fill="#FFFFFF" height="231.1611" id="DrawPanel" rx="2.5" ry="2.5" style="stroke:#000000;stroke-width:1.0;" width="270" x="30.5" y="545"/><ellipse cx="125.75" cy="559" fill="#FFFFFF" rx="9" ry="9" style="stroke:#000000;stroke-width:1.0;"/><path d="M128.5156,560.5313 L130.9063,561.2813 Q130.3594,563.2656 129.0781,564.2344 Q127.8125,565.2031 125.8438,565.2031 Q123.4219,565.2031 121.8594,563.5469 Q120.3125,561.8906 120.3125,559.0156 Q120.3125,555.9844 121.875,554.3125 Q123.4375,552.625 126,552.625 Q128.2344,552.625 129.625,553.9375 Q130.4531,554.7188 130.875,556.1875 L128.4375,556.7656 Q128.2188,555.8125 127.5313,555.2656 Q126.8594,554.7188 125.875,554.7188 Q124.5156,554.7188 123.6719,555.7031 Q122.8438,556.6719 122.8438,558.8438 Q122.8438,561.1406 123.6719,562.125 Q124.5,563.1094 125.8281,563.1094 Q126.8125,563.1094 127.5156,562.4844 Q128.2188,561.8594 128.5156,560.5313 Z " fill="#000000"/><text fill="#000000" font-family="Verdana" font-size="14" lengthAdjust="spacing" textLength="72" x="143.25" y="564.5679">DrawPanel</text><line style="stroke:#000000;stroke-width:1.0;" x1="31.5" x2="299.5" y1="573" y2="573"/><line style="stroke:#000000;stroke-width:1.0;" x1="31.5" x2="299.5" y1="581" y2="581"/><ellipse cx="41.5" cy="595.0073" fill="#FFFFFF" rx="3" ry="3" style="stroke:#000000;stroke-width:1.0;"/><text fill="#000000" font-family="Verdana" font-size="14" lengthAdjust="spacing" textLength="230" x="48.5" y="599.0752">paintComponent(Graphics): void</text><ellipse cx="41.5" cy="612.022" fill="#FFFFFF" rx="3" ry="3" style="stroke:#000000;stroke-width:1.0;"/><text fill="#000000" font-family="Verdana" font-size="14" lengthAdjust="spacing" textLength="124" x="48.5" y="616.0898">add(int, int): void</text><ellipse cx="41.5" cy="629.0366" fill="#FFFFFF" rx="3" ry="3" style="stroke:#000000;stroke-width:1.0;"/><text fill="#000000" font-family="Verdana" font-size="14" lengthAdjust="spacing" textLength="84" x="48.5" y="633.1045">clear(): void</text><ellipse cx="41.5" cy="646.0513" fill="#FFFFFF" rx="3" ry="3" style="stroke:#000000;stroke-width:1.0;"/><text fill="#000000" font-family="Verdana" font-size="14" lengthAdjust="spacing" textLength="244" x="48.5" y="650.1191">mouseDragged(MouseEvent): void</text><ellipse cx="41.5" cy="663.0659" fill="#FFFFFF" rx="3" ry="3" style="stroke:#000000;stroke-width:1.0;"/><text fill="#000000" font-family="Verdana" font-size="14" lengthAdjust="spacing" textLength="229" x="48.5" y="667.1338">mouseMoved(MouseEvent): void</text><ellipse cx="41.5" cy="680.0806" fill="#FFFFFF" rx="3" ry="3" style="stroke:#000000;stroke-width:1.0;"/><text fill="#000000" font-family="Verdana" font-size="14" lengthAdjust="spacing" textLength="246" x="48.5" y="684.1484">mouseReleased(MouseEvent): void</text><ellipse cx="41.5" cy="697.0952" fill="#FFFFFF" rx="3" ry="3" style="stroke:#000000;stroke-width:1.0;"/><text fill="#000000" font-family="Verdana" font-size="14" lengthAdjust="spacing" textLength="239" x="48.5" y="701.1631">mousePressed(MouseEvent): void</text><ellipse cx="41.5" cy="714.1099" fill="#FFFFFF" rx="3" ry="3" style="stroke:#000000;stroke-width:1.0;"/><text fill="#000000" font-family="Verdana" font-size="14" lengthAdjust="spacing" textLength="228" x="48.5" y="718.1777">mouseExited(MouseEvent): void</text><ellipse cx="41.5" cy="731.1245" fill="#FFFFFF" rx="3" ry="3" style="stroke:#000000;stroke-width:1.0;"/><text fill="#000000" font-family="Verdana" font-size="14" lengthAdjust="spacing" textLength="232" x="48.5" y="735.1924">mouseClicked(MouseEvent): void</text><ellipse cx="41.5" cy="748.1392" fill="#FFFFFF" rx="3" ry="3" style="stroke:#000000;stroke-width:1.0;"/><text fill="#000000" font-family="Verdana" font-size="14" lengthAdjust="spacing" textLength="239" x="48.5" y="752.207">mouseEntered(MouseEvent): void</text><ellipse cx="41.5" cy="765.1538" fill="#FFFFFF" rx="3" ry="3" style="stroke:#000000;stroke-width:1.0;"/><text fill="#000000" font-family="Verdana" font-size="14" lengthAdjust="spacing" textLength="90" x="48.5" y="769.2217">DrawPanel():</text></g><!--MD5=[f935db1b31830b38f4ab0212fe6f6a99]
class DiscussionUserItemPanel--><g id="elem_DiscussionUserItemPanel"><rect codeLine="37" fill="#FFFFFF" height="78.0293" id="DiscussionUserItemPanel" rx="2.5" ry="2.5" style="stroke:#000000;stroke-width:1.0;" width="274" x="543.5" y="381.5"/><ellipse cx="589.25" cy="395.5" fill="#FFFFFF" rx="9" ry="9" style="stroke:#000000;stroke-width:1.0;"/><path d="M592.0156,397.0313 L594.4063,397.7813 Q593.8594,399.7656 592.5781,400.7344 Q591.3125,401.7031 589.3438,401.7031 Q586.9219,401.7031 585.3594,400.0469 Q583.8125,398.3906 583.8125,395.5156 Q583.8125,392.4844 585.375,390.8125 Q586.9375,389.125 589.5,389.125 Q591.7344,389.125 593.125,390.4375 Q593.9531,391.2188 594.375,392.6875 L591.9375,393.2656 Q591.7188,392.3125 591.0313,391.7656 Q590.3594,391.2188 589.375,391.2188 Q588.0156,391.2188 587.1719,392.2031 Q586.3438,393.1719 586.3438,395.3438 Q586.3438,397.6406 587.1719,398.625 Q588,399.6094 589.3281,399.6094 Q590.3125,399.6094 591.0156,398.9844 Q591.7188,398.3594 592.0156,397.0313 Z " fill="#000000"/><text fill="#000000" font-family="Verdana" font-size="14" lengthAdjust="spacing" textLength="175" x="606.75" y="401.0679">DiscussionUserItemPanel</text><line style="stroke:#000000;stroke-width:1.0;" x1="544.5" x2="816.5" y1="409.5" y2="409.5"/><line style="stroke:#000000;stroke-width:1.0;" x1="544.5" x2="816.5" y1="417.5" y2="417.5"/><ellipse cx="554.5" cy="431.5073" fill="#FFFFFF" rx="3" ry="3" style="stroke:#000000;stroke-width:1.0;"/><text fill="#000000" font-family="Verdana" font-size="14" lengthAdjust="spacing" textLength="250" x="561.5" y="435.5752">actionPerformed(ActionEvent): void</text><ellipse cx="554.5" cy="448.522" fill="#FFFFFF" rx="3" ry="3" style="stroke:#000000;stroke-width:1.0;"/><text fill="#000000" font-family="Verdana" font-size="14" lengthAdjust="spacing" textLength="225" x="561.5" y="452.5898">UserItemPanel(UserDiscussion):</text></g><!--MD5=[e5736b18f782f75c1efae1d16d13b67a]
class DiscussionUsersPanel--><g id="elem_DiscussionUsersPanel"><rect codeLine="41" fill="#FFFFFF" height="61.0146" id="DiscussionUsersPanel" rx="2.5" ry="2.5" style="stroke:#000000;stroke-width:1.0;" width="385" x="488" y="235"/><ellipse cx="601.25" cy="249" fill="#FFFFFF" rx="9" ry="9" style="stroke:#000000;stroke-width:1.0;"/><path d="M604.0156,250.5313 L606.4063,251.2813 Q605.8594,253.2656 604.5781,254.2344 Q603.3125,255.2031 601.3438,255.2031 Q598.9219,255.2031 597.3594,253.5469 Q595.8125,251.8906 595.8125,249.0156 Q595.8125,245.9844 597.375,244.3125 Q598.9375,242.625 601.5,242.625 Q603.7344,242.625 605.125,243.9375 Q605.9531,244.7188 606.375,246.1875 L603.9375,246.7656 Q603.7188,245.8125 603.0313,245.2656 Q602.3594,244.7188 601.375,244.7188 Q600.0156,244.7188 599.1719,245.7031 Q598.3438,246.6719 598.3438,248.8438 Q598.3438,251.1406 599.1719,252.125 Q600,253.1094 601.3281,253.1094 Q602.3125,253.1094 603.0156,252.4844 Q603.7188,251.8594 604.0156,250.5313 Z " fill="#000000"/><text fill="#000000" font-family="Verdana" font-size="14" lengthAdjust="spacing" textLength="151" x="618.75" y="254.5679">DiscussionUsersPanel</text><line style="stroke:#000000;stroke-width:1.0;" x1="489" x2="872" y1="263" y2="263"/><line style="stroke:#000000;stroke-width:1.0;" x1="489" x2="872" y1="271" y2="271"/><ellipse cx="499" cy="285.0073" fill="#FFFFFF" rx="3" ry="3" style="stroke:#000000;stroke-width:1.0;"/><text fill="#000000" font-family="Verdana" font-size="14" lengthAdjust="spacing" textLength="361" x="506" y="289.0752">DiscussionUsersPanel(ArrayList&lt;UserDiscussion&gt;):</text></g><!--MD5=[0008db4b6987823470a8b48b039e9001]
class InviteUserItemPanel--><g id="elem_InviteUserItemPanel"><rect codeLine="44" fill="#FFFFFF" height="78.0293" id="InviteUserItemPanel" rx="2.5" ry="2.5" style="stroke:#000000;stroke-width:1.0;" width="274" x="895.5" y="621.5"/><ellipse cx="959.25" cy="635.5" fill="#FFFFFF" rx="9" ry="9" style="stroke:#000000;stroke-width:1.0;"/><path d="M962.0156,637.0313 L964.4063,637.7813 Q963.8594,639.7656 962.5781,640.7344 Q961.3125,641.7031 959.3438,641.7031 Q956.9219,641.7031 955.3594,640.0469 Q953.8125,638.3906 953.8125,635.5156 Q953.8125,632.4844 955.375,630.8125 Q956.9375,629.125 959.5,629.125 Q961.7344,629.125 963.125,630.4375 Q963.9531,631.2188 964.375,632.6875 L961.9375,633.2656 Q961.7188,632.3125 961.0313,631.7656 Q960.3594,631.2188 959.375,631.2188 Q958.0156,631.2188 957.1719,632.2031 Q956.3438,633.1719 956.3438,635.3438 Q956.3438,637.6406 957.1719,638.625 Q958,639.6094 959.3281,639.6094 Q960.3125,639.6094 961.0156,638.9844 Q961.7188,638.3594 962.0156,637.0313 Z " fill="#000000"/><text fill="#000000" font-family="Verdana" font-size="14" lengthAdjust="spacing" textLength="139" x="976.75" y="641.0679">InviteUserItemPanel</text><line style="stroke:#000000;stroke-width:1.0;" x1="896.5" x2="1168.5" y1="649.5" y2="649.5"/><line style="stroke:#000000;stroke-width:1.0;" x1="896.5" x2="1168.5" y1="657.5" y2="657.5"/><ellipse cx="906.5" cy="671.5073" fill="#FFFFFF" rx="3" ry="3" style="stroke:#000000;stroke-width:1.0;"/><text fill="#000000" font-family="Verdana" font-size="14" lengthAdjust="spacing" textLength="250" x="913.5" y="675.5752">actionPerformed(ActionEvent): void</text><ellipse cx="906.5" cy="688.522" fill="#FFFFFF" rx="3" ry="3" style="stroke:#000000;stroke-width:1.0;"/><text fill="#000000" font-family="Verdana" font-size="14" lengthAdjust="spacing" textLength="225" x="913.5" y="692.5898">UserItemPanel(UserDiscussion):</text></g><!--MD5=[0b0f7eb801212b65d8e6bd9312a04106]
class InviteFriendsPanel--><g id="elem_InviteFriendsPanel"><rect codeLine="48" fill="#FFFFFF" height="61.0146" id="InviteFriendsPanel" rx="2.5" ry="2.5" style="stroke:#000000;stroke-width:1.0;" width="360" x="852.5" y="390"/><ellipse cx="965.75" cy="404" fill="#FFFFFF" rx="9" ry="9" style="stroke:#000000;stroke-width:1.0;"/><path d="M968.5156,405.5313 L970.9063,406.2813 Q970.3594,408.2656 969.0781,409.2344 Q967.8125,410.2031 965.8438,410.2031 Q963.4219,410.2031 961.8594,408.5469 Q960.3125,406.8906 960.3125,404.0156 Q960.3125,400.9844 961.875,399.3125 Q963.4375,397.625 966,397.625 Q968.2344,397.625 969.625,398.9375 Q970.4531,399.7188 970.875,401.1875 L968.4375,401.7656 Q968.2188,400.8125 967.5313,400.2656 Q966.8594,399.7188 965.875,399.7188 Q964.5156,399.7188 963.6719,400.7031 Q962.8438,401.6719 962.8438,403.8438 Q962.8438,406.1406 963.6719,407.125 Q964.5,408.1094 965.8281,408.1094 Q966.8125,408.1094 967.5156,407.4844 Q968.2188,406.8594 968.5156,405.5313 Z " fill="#000000"/><text fill="#000000" font-family="Verdana" font-size="14" lengthAdjust="spacing" textLength="126" x="983.25" y="409.5679">InviteFriendsPanel</text><line style="stroke:#000000;stroke-width:1.0;" x1="853.5" x2="1211.5" y1="418" y2="418"/><line style="stroke:#000000;stroke-width:1.0;" x1="853.5" x2="1211.5" y1="426" y2="426"/><ellipse cx="863.5" cy="440.0073" fill="#FFFFFF" rx="3" ry="3" style="stroke:#000000;stroke-width:1.0;"/><text fill="#000000" font-family="Verdana" font-size="14" lengthAdjust="spacing" textLength="336" x="870.5" y="444.0752">InviteFriendsPanel(ArrayList&lt;UserDiscussion&gt;):</text></g><!--MD5=[ebb6dbb8479d50d8133fd411e7d44305]
class FasterScrollPane--><g id="elem_FasterScrollPane"><rect codeLine="51" fill="#FFFFFF" height="61.0146" id="FasterScrollPane" rx="2.5" ry="2.5" style="stroke:#000000;stroke-width:1.0;" width="239" x="862" y="63"/><ellipse cx="920.25" cy="77" fill="#FFFFFF" rx="9" ry="9" style="stroke:#000000;stroke-width:1.0;"/><path d="M923.0156,78.5313 L925.4063,79.2813 Q924.8594,81.2656 923.5781,82.2344 Q922.3125,83.2031 920.3438,83.2031 Q917.9219,83.2031 916.3594,81.5469 Q914.8125,79.8906 914.8125,77.0156 Q914.8125,73.9844 916.375,72.3125 Q917.9375,70.625 920.5,70.625 Q922.7344,70.625 924.125,71.9375 Q924.9531,72.7188 925.375,74.1875 L922.9375,74.7656 Q922.7188,73.8125 922.0313,73.2656 Q921.3594,72.7188 920.375,72.7188 Q919.0156,72.7188 918.1719,73.7031 Q917.3438,74.6719 917.3438,76.8438 Q917.3438,79.1406 918.1719,80.125 Q919,81.1094 920.3281,81.1094 Q921.3125,81.1094 922.0156,80.4844 Q922.7188,79.8594 923.0156,78.5313 Z " fill="#000000"/><text fill="#000000" font-family="Verdana" font-size="14" lengthAdjust="spacing" textLength="115" x="937.75" y="82.5679">FasterScrollPane</text><line style="stroke:#000000;stroke-width:1.0;" x1="863" x2="1100" y1="91" y2="91"/><line style="stroke:#000000;stroke-width:1.0;" x1="863" x2="1100" y1="99" y2="99"/><ellipse cx="873" cy="113.0073" fill="#FFFFFF" rx="3" ry="3" style="stroke:#000000;stroke-width:1.0;"/><text fill="#000000" font-family="Verdana" font-size="14" lengthAdjust="spacing" textLength="215" x="880" y="117.0752">FasterScrollPane(Component):</text></g><!--MD5=[ac42f2da5dc4cbc3d756aeab26d9754a]
class LoadingLabel--><g id="elem_LoadingLabel"><rect codeLine="54" fill="#FFFFFF" height="61.0146" id="LoadingLabel" rx="2.5" ry="2.5" style="stroke:#000000;stroke-width:1.0;" width="133" x="694" y="63"/><ellipse cx="713.3" cy="77" fill="#FFFFFF" rx="9" ry="9" style="stroke:#000000;stroke-width:1.0;"/><path d="M716.0656,78.5313 L718.4563,79.2813 Q717.9094,81.2656 716.6281,82.2344 Q715.3625,83.2031 713.3938,83.2031 Q710.9719,83.2031 709.4094,81.5469 Q707.8625,79.8906 707.8625,77.0156 Q707.8625,73.9844 709.425,72.3125 Q710.9875,70.625 713.55,70.625 Q715.7844,70.625 717.175,71.9375 Q718.0031,72.7188 718.425,74.1875 L715.9875,74.7656 Q715.7688,73.8125 715.0813,73.2656 Q714.4094,72.7188 713.425,72.7188 Q712.0656,72.7188 711.2219,73.7031 Q710.3938,74.6719 710.3938,76.8438 Q710.3938,79.1406 711.2219,80.125 Q712.05,81.1094 713.3781,81.1094 Q714.3625,81.1094 715.0656,80.4844 Q715.7688,79.8594 716.0656,78.5313 Z " fill="#000000"/><text fill="#000000" font-family="Verdana" font-size="14" lengthAdjust="spacing" textLength="91" x="726.7" y="82.5679">LoadingLabel</text><line style="stroke:#000000;stroke-width:1.0;" x1="695" x2="826" y1="91" y2="91"/><line style="stroke:#000000;stroke-width:1.0;" x1="695" x2="826" y1="99" y2="99"/><ellipse cx="705" cy="113.0073" fill="#FFFFFF" rx="3" ry="3" style="stroke:#000000;stroke-width:1.0;"/><text fill="#000000" font-family="Verdana" font-size="14" lengthAdjust="spacing" textLength="109" x="712" y="117.0752">LoadingLabel():</text></g><!--MD5=[1b854c81530655c9be378971e4009d96]
class PaintPanel--><g id="elem_PaintPanel"><rect codeLine="57" fill="#FFFFFF" height="129.0732" id="PaintPanel" rx="2.5" ry="2.5" style="stroke:#000000;stroke-width:1.0;" width="307" x="12" y="356"/><ellipse cx="126.75" cy="370" fill="#FFFFFF" rx="9" ry="9" style="stroke:#000000;stroke-width:1.0;"/><path d="M129.5156,371.5313 L131.9063,372.2813 Q131.3594,374.2656 130.0781,375.2344 Q128.8125,376.2031 126.8438,376.2031 Q124.4219,376.2031 122.8594,374.5469 Q121.3125,372.8906 121.3125,370.0156 Q121.3125,366.9844 122.875,365.3125 Q124.4375,363.625 127,363.625 Q129.2344,363.625 130.625,364.9375 Q131.4531,365.7188 131.875,367.1875 L129.4375,367.7656 Q129.2188,366.8125 128.5313,366.2656 Q127.8594,365.7188 126.875,365.7188 Q125.5156,365.7188 124.6719,366.7031 Q123.8438,367.6719 123.8438,369.8438 Q123.8438,372.1406 124.6719,373.125 Q125.5,374.1094 126.8281,374.1094 Q127.8125,374.1094 128.5156,373.4844 Q129.2188,372.8594 129.5156,371.5313 Z " fill="#000000"/><text fill="#000000" font-family="Verdana" font-size="14" lengthAdjust="spacing" textLength="70" x="144.25" y="375.5679">PaintPanel</text><line style="stroke:#000000;stroke-width:1.0;" x1="13" x2="318" y1="384" y2="384"/><line style="stroke:#000000;stroke-width:1.0;" x1="13" x2="318" y1="392" y2="392"/><ellipse cx="23" cy="406.0073" fill="#FFFFFF" rx="3" ry="3" style="stroke:#000000;stroke-width:1.0;"/><text fill="#000000" font-family="Verdana" font-size="14" lengthAdjust="spacing" textLength="283" x="30" y="410.0752">updateDrawList(ArrayList&lt;Draw&gt;): void</text><ellipse cx="23" cy="423.022" fill="#FFFFFF" rx="3" ry="3" style="stroke:#000000;stroke-width:1.0;"/><text fill="#000000" font-family="Verdana" font-size="14" lengthAdjust="spacing" textLength="250" x="30" y="427.0898">actionPerformed(ActionEvent): void</text><ellipse cx="23" cy="440.0366" fill="#FFFFFF" rx="3" ry="3" style="stroke:#000000;stroke-width:1.0;"/><text fill="#000000" font-family="Verdana" font-size="14" lengthAdjust="spacing" textLength="135" x="30" y="444.1045">receiveClear(): void</text><ellipse cx="23" cy="457.0513" fill="#FFFFFF" rx="3" ry="3" style="stroke:#000000;stroke-width:1.0;"/><text fill="#000000" font-family="Verdana" font-size="14" lengthAdjust="spacing" textLength="164" x="30" y="461.1191">receiveAdd(Draw): void</text><ellipse cx="23" cy="474.0659" fill="#FFFFFF" rx="3" ry="3" style="stroke:#000000;stroke-width:1.0;"/><text fill="#000000" font-family="Verdana" font-size="14" lengthAdjust="spacing" textLength="88" x="30" y="478.1338">PaintPanel():</text></g><!--MD5=[835cf4312292c282fb17b8e75ab735ba]
class PaintColorPanel--><g id="elem_PaintColorPanel"><rect codeLine="64" fill="#FFFFFF" height="95.0439" id="PaintColorPanel" rx="2.5" ry="2.5" style="stroke:#000000;stroke-width:1.0;" width="274" x="335.5" y="613"/><ellipse cx="415.25" cy="627" fill="#FFFFFF" rx="9" ry="9" style="stroke:#000000;stroke-width:1.0;"/><path d="M418.0156,628.5313 L420.4063,629.2813 Q419.8594,631.2656 418.5781,632.2344 Q417.3125,633.2031 415.3438,633.2031 Q412.9219,633.2031 411.3594,631.5469 Q409.8125,629.8906 409.8125,627.0156 Q409.8125,623.9844 411.375,622.3125 Q412.9375,620.625 415.5,620.625 Q417.7344,620.625 419.125,621.9375 Q419.9531,622.7188 420.375,624.1875 L417.9375,624.7656 Q417.7188,623.8125 417.0313,623.2656 Q416.3594,622.7188 415.375,622.7188 Q414.0156,622.7188 413.1719,623.7031 Q412.3438,624.6719 412.3438,626.8438 Q412.3438,629.1406 413.1719,630.125 Q414,631.1094 415.3281,631.1094 Q416.3125,631.1094 417.0156,630.4844 Q417.7188,629.8594 418.0156,628.5313 Z " fill="#000000"/><text fill="#000000" font-family="Verdana" font-size="14" lengthAdjust="spacing" textLength="107" x="432.75" y="632.5679">PaintColorPanel</text><line style="stroke:#000000;stroke-width:1.0;" x1="336.5" x2="608.5" y1="641" y2="641"/><rect fill="none" height="6" style="stroke:#000000;stroke-width:1.0;" width="6" x="343.5" y="652.0073"/><text fill="#000000" font-family="Verdana" font-size="14" lengthAdjust="spacing" textLength="120" x="353.5" y="659.0752">paintColor: Color</text><line style="stroke:#000000;stroke-width:1.0;" x1="336.5" x2="608.5" y1="666.0146" y2="666.0146"/><ellipse cx="346.5" cy="680.022" fill="#FFFFFF" rx="3" ry="3" style="stroke:#000000;stroke-width:1.0;"/><text fill="#000000" font-family="Verdana" font-size="14" lengthAdjust="spacing" textLength="250" x="353.5" y="684.0898">actionPerformed(ActionEvent): void</text><ellipse cx="346.5" cy="697.0366" fill="#FFFFFF" rx="3" ry="3" style="stroke:#000000;stroke-width:1.0;"/><text fill="#000000" font-family="Verdana" font-size="14" lengthAdjust="spacing" textLength="125" x="353.5" y="701.1045">PaintColorPanel():</text></g><!--MD5=[1a4d913a4df316a7036c5c6aaec84a68]
class PaintWidthPanel--><g id="elem_PaintWidthPanel"><rect codeLine="69" fill="#FFFFFF" height="78.0293" id="PaintWidthPanel" rx="2.5" ry="2.5" style="stroke:#000000;stroke-width:1.0;" width="154" x="354.5" y="381.5"/><ellipse cx="373.8" cy="395.5" fill="#FFFFFF" rx="9" ry="9" style="stroke:#000000;stroke-width:1.0;"/><path d="M376.5656,397.0313 L378.9563,397.7813 Q378.4094,399.7656 377.1281,400.7344 Q375.8625,401.7031 373.8938,401.7031 Q371.4719,401.7031 369.9094,400.0469 Q368.3625,398.3906 368.3625,395.5156 Q368.3625,392.4844 369.925,390.8125 Q371.4875,389.125 374.05,389.125 Q376.2844,389.125 377.675,390.4375 Q378.5031,391.2188 378.925,392.6875 L376.4875,393.2656 Q376.2688,392.3125 375.5813,391.7656 Q374.9094,391.2188 373.925,391.2188 Q372.5656,391.2188 371.7219,392.2031 Q370.8938,393.1719 370.8938,395.3438 Q370.8938,397.6406 371.7219,398.625 Q372.55,399.6094 373.8781,399.6094 Q374.8625,399.6094 375.5656,398.9844 Q376.2688,398.3594 376.5656,397.0313 Z " fill="#000000"/><text fill="#000000" font-family="Verdana" font-size="14" lengthAdjust="spacing" textLength="112" x="387.2" y="401.0679">PaintWidthPanel</text><line style="stroke:#000000;stroke-width:1.0;" x1="355.5" x2="507.5" y1="409.5" y2="409.5"/><rect fill="none" height="6" style="stroke:#000000;stroke-width:1.0;" width="6" x="362.5" y="420.5073"/><text fill="#000000" font-family="Verdana" font-size="14" lengthAdjust="spacing" textLength="106" x="372.5" y="427.5752">paintWidth: int</text><line style="stroke:#000000;stroke-width:1.0;" x1="355.5" x2="507.5" y1="434.5146" y2="434.5146"/><ellipse cx="365.5" cy="448.522" fill="#FFFFFF" rx="3" ry="3" style="stroke:#000000;stroke-width:1.0;"/><text fill="#000000" font-family="Verdana" font-size="14" lengthAdjust="spacing" textLength="130" x="372.5" y="452.5898">PaintWidthPanel():</text></g><!--MD5=[1fbb9459571cdf7aac16ec47c58c124c]
link DiscussionFrame to ChatPane--><g id="link_DiscussionFrame_ChatPane"><path codeLine="74" d="M386.75,187.22 C386.75,187.22 386.75,221.98 386.75,221.98 " fill="none" id="DiscussionFrame-ChatPane" style="stroke:#595959;stroke-width:1.0;"/><polygon fill="#595959" points="386.75,234.98,390.75,225.98,386.75,229.98,382.75,225.98,386.75,234.98" style="stroke:#595959;stroke-width:1.0;"/><line style="stroke:#595959;stroke-width:1.0;" x1="386.75" x2="386.75" y1="229.98" y2="221.98"/><polygon fill="none" points="386.75,175.22,382.75,181.22,386.75,187.22,390.75,181.22,386.75,175.22" style="stroke:#595959;stroke-width:1.0;"/><text fill="#000000" font-family="Verdana" font-size="13" lengthAdjust="spacing" textLength="8" x="367.6395" y="196.267">1</text></g><!--MD5=[37b2991a4eaf52bd984f63e68a238cc0]
link DiscussionFrame to PaintPanel--><g id="link_DiscussionFrame_PaintPanel"><path codeLine="75" d="M452.75,187.09 C452.75,187.09 452.75,373 452.75,373 C452.75,373 332.22,373 332.22,373 " fill="none" id="DiscussionFrame-PaintPanel" style="stroke:#595959;stroke-width:1.0;"/><polygon fill="#595959" points="319.22,373,328.22,377,324.22,373,328.22,369,319.22,373" style="stroke:#595959;stroke-width:1.0;"/><line style="stroke:#595959;stroke-width:1.0;" x1="324.22" x2="332.22" y1="373" y2="373"/><polygon fill="none" points="452.75,175.09,448.75,181.09,452.75,187.09,456.75,181.09,452.75,175.09" style="stroke:#595959;stroke-width:1.0;"/><text fill="#000000" font-family="Verdana" font-size="13" lengthAdjust="spacing" textLength="8" x="326.8596" y="368.4233">1</text></g><!--MD5=[54dec6c5c7bca2284e622cd11b94b454]
link DiscussionFrame to DiscussionUsersPanel--><g id="link_DiscussionFrame_DiscussionUsersPanel"><path codeLine="76" d="M573.5,175.22 C573.5,175.22 573.5,229.98 573.5,229.98 " fill="none" id="DiscussionFrame-to-DiscussionUsersPanel" style="stroke:#595959;stroke-width:1.0;stroke-dasharray:7.0,7.0;"/><polygon fill="#595959" points="573.5,234.98,577.5,225.98,573.5,229.98,569.5,225.98,573.5,234.98" style="stroke:#595959;stroke-width:1.0;"/><text fill="#000000" font-family="Verdana" font-size="13" lengthAdjust="spacing" textLength="43" x="529.5" y="199.6698">create</text></g><!--MD5=[f3567163befa3ee2b8d4524fd9fade9e]
link DiscussionFrame to FasterScrollPane--><g id="link_DiscussionFrame_FasterScrollPane"><path codeLine="77" d="M659.13,141 C757.51,141 867.5,141 867.5,141 C867.5,141 867.5,129.12 867.5,129.12 " fill="none" id="DiscussionFrame-to-FasterScrollPane" style="stroke:#595959;stroke-width:1.0;stroke-dasharray:7.0,7.0;"/><polygon fill="#595959" points="867.5,124.12,863.5,133.12,867.5,129.12,871.5,133.12,867.5,124.12" style="stroke:#595959;stroke-width:1.0;"/><text fill="#000000" font-family="Verdana" font-size="13" lengthAdjust="spacing" textLength="23" x="745.25" y="138.0698">use</text></g><!--MD5=[9f3a0a59b2bd03f44f76ce30f99fff5b]
link DiscussionFrame to InviteFriendsPanel--><g id="link_DiscussionFrame_InviteFriendsPanel"><path codeLine="78" d="M659.22,158 C799.7,158 987,158 987,158 C987,158 987,384.87 987,384.87 " fill="none" id="DiscussionFrame-to-InviteFriendsPanel" style="stroke:#595959;stroke-width:1.0;stroke-dasharray:7.0,7.0;"/><polygon fill="#595959" points="987,389.87,991,380.87,987,384.87,983,380.87,987,389.87" style="stroke:#595959;stroke-width:1.0;"/><text fill="#000000" font-family="Verdana" font-size="13" lengthAdjust="spacing" textLength="43" x="892.55" y="155.0698">create</text></g><!--MD5=[fbdc0c2b61016546c5c0c9508ba24bd4]
link DiscussionFrame to LoadingLabel--><g id="link_DiscussionFrame_LoadingLabel"><path codeLine="79" d="M659.05,94 C659.05,94 688.94,94 688.94,94 " fill="none" id="DiscussionFrame-to-LoadingLabel" style="stroke:#595959;stroke-width:1.0;stroke-dasharray:7.0,7.0;"/><polygon fill="#595959" points="693.94,94,684.94,90,688.94,94,684.94,98,693.94,94" style="stroke:#595959;stroke-width:1.0;"/><text fill="#000000" font-family="Verdana" font-size="13" lengthAdjust="spacing" textLength="23" x="668.74" y="108.0698">use</text></g><!--MD5=[cd5266c18d48424b6e9739604f683d1e]
link DiscussionUsersPanel to DiscussionUserItemPanel--><g id="link_DiscussionUsersPanel_DiscussionUserItemPanel"><path codeLine="80" d="M726.17,308.12 C726.17,308.12 726.17,368.39 726.17,368.39 " fill="none" id="DiscussionUsersPanel-DiscussionUserItemPanel" style="stroke:#595959;stroke-width:1.0;stroke-dasharray:7.0,7.0;"/><polygon fill="#595959" points="726.17,381.39,730.17,372.39,726.17,376.39,722.17,372.39,726.17,381.39" style="stroke:#595959;stroke-width:1.0;"/><line style="stroke:#595959;stroke-width:1.0;" x1="726.17" x2="726.17" y1="376.39" y2="368.39"/><polygon fill="#595959" points="726.17,296.12,722.17,302.12,726.17,308.12,730.17,302.12,726.17,296.12" style="stroke:#595959;stroke-width:1.0;"/><text fill="#000000" font-family="Verdana" font-size="13" lengthAdjust="spacing" textLength="9" x="725.6613" y="317.133">*</text></g><!--MD5=[3e9df6e0ab8d6e1db9ffbd950ddf9416]
reverse link DiscussionUserItemPanel to DiscussionUsersPanel--><g id="link_DiscussionUserItemPanel_DiscussionUsersPanel"><path codeLine="88" d="M634.83,366.39 C634.83,366.39 634.83,296.3 634.83,296.3 " fill="none" id="DiscussionUserItemPanel-backto-DiscussionUsersPanel" style="stroke:#820000;stroke-width:1.0;"/><ellipse cx="634.83" cy="373.39" fill="#FFFFFF" rx="8" ry="8" style="stroke:#820000;stroke-width:1.0;"/><line style="stroke:#820000;stroke-width:1.0;" x1="634.83" x2="634.83" y1="365.39" y2="381.39"/><line style="stroke:#820000;stroke-width:1.0;" x1="642.83" x2="626.83" y1="373.39" y2="373.39"/></g><!--MD5=[580e5066f5d235908ce56f61c6f20bee]
reverse link DrawPanel to PaintPanel--><g id="link_DrawPanel_PaintPanel"><path codeLine="81" d="M210.5,529.72 C210.5,529.72 210.5,485.13 210.5,485.13 " fill="none" id="DrawPanel-backto-PaintPanel" style="stroke:#820000;stroke-width:1.0;"/><ellipse cx="210.5" cy="536.72" fill="#FFFFFF" rx="8" ry="8" style="stroke:#820000;stroke-width:1.0;"/><line style="stroke:#820000;stroke-width:1.0;" x1="210.5" x2="210.5" y1="528.72" y2="544.72"/><line style="stroke:#820000;stroke-width:1.0;" x1="218.5" x2="202.5" y1="536.72" y2="536.72"/></g><!--MD5=[d6c6a1bf6e95a40516855456e5e3279b]
link PaintPanel to DrawPanel--><g id="link_PaintPanel_DrawPanel"><path codeLine="83" d="M120.5,497.13 C120.5,497.13 120.5,531.84 120.5,531.84 " fill="none" id="PaintPanel-DrawPanel" style="stroke:#595959;stroke-width:1.0;"/><polygon fill="#595959" points="120.5,544.84,124.5,535.84,120.5,539.84,116.5,535.84,120.5,544.84" style="stroke:#595959;stroke-width:1.0;"/><line style="stroke:#595959;stroke-width:1.0;" x1="120.5" x2="120.5" y1="539.84" y2="531.84"/><polygon fill="#595959" points="120.5,485.13,116.5,491.13,120.5,497.13,124.5,491.13,120.5,485.13" style="stroke:#595959;stroke-width:1.0;"/><text fill="#000000" font-family="Verdana" font-size="13" lengthAdjust="spacing" textLength="8" x="107.1406" y="506.1288">1</text></g><!--MD5=[89e2662cb43a408fb79cc8b53531a252]
link InviteFriendsPanel to InviteUserItemPanel--><g id="link_InviteFriendsPanel_InviteUserItemPanel"><path codeLine="82" d="M986.83,463.38 C986.83,463.38 986.83,608.38 986.83,608.38 " fill="none" id="InviteFriendsPanel-InviteUserItemPanel" style="stroke:#595959;stroke-width:1.0;stroke-dasharray:7.0,7.0;"/><polygon fill="#595959" points="986.83,621.38,990.83,612.38,986.83,616.38,982.83,612.38,986.83,621.38" style="stroke:#595959;stroke-width:1.0;"/><line style="stroke:#595959;stroke-width:1.0;" x1="986.83" x2="986.83" y1="616.38" y2="608.38"/><polygon fill="#595959" points="986.83,451.38,982.83,457.38,986.83,463.38,990.83,457.38,986.83,451.38" style="stroke:#595959;stroke-width:1.0;"/><text fill="#000000" font-family="Verdana" font-size="13" lengthAdjust="spacing" textLength="9" x="967.9528" y="472.0831">*</text></g><!--MD5=[f0c6cb836e0603b51c96b3b095fed7e5]
reverse link InviteUserItemPanel to InviteFriendsPanel--><g id="link_InviteUserItemPanel_InviteFriendsPanel"><path codeLine="89" d="M1078.17,606.41 C1078.17,606.41 1078.17,451.19 1078.17,451.19 " fill="none" id="InviteUserItemPanel-backto-InviteFriendsPanel" style="stroke:#820000;stroke-width:1.0;"/><ellipse cx="1078.17" cy="613.41" fill="#FFFFFF" rx="8" ry="8" style="stroke:#820000;stroke-width:1.0;"/><line style="stroke:#820000;stroke-width:1.0;" x1="1078.17" x2="1078.17" y1="605.41" y2="621.41"/><line style="stroke:#820000;stroke-width:1.0;" x1="1086.17" x2="1070.17" y1="613.41" y2="613.41"/></g><!--MD5=[fec75fc5b5276c2072d6dd2c12a6b618]
link PaintPanel to PaintColorPanel--><g id="link_PaintPanel_PaintColorPanel"><path codeLine="84" d="M331.28,473 C331.28,473 345,473 345,473 C345,473 345,599.7 345,599.7 " fill="none" id="PaintPanel-PaintColorPanel" style="stroke:#595959;stroke-width:1.0;"/><polygon fill="#595959" points="345,612.7,349,603.7,345,607.7,341,603.7,345,612.7" style="stroke:#595959;stroke-width:1.0;"/><line style="stroke:#595959;stroke-width:1.0;" x1="345" x2="345" y1="607.7" y2="599.7"/><polygon fill="#595959" points="319.28,473,325.28,477,331.28,473,325.28,469,319.28,473" style="stroke:#595959;stroke-width:1.0;"/><text fill="#000000" font-family="Verdana" font-size="13" lengthAdjust="spacing" textLength="8" x="319.3297" y="603.3896">1</text></g><!--MD5=[725c568a0dc71a726878705d4795d4cb]
link PaintPanel to PaintWidthPanel--><g id="link_PaintPanel_PaintWidthPanel"><path codeLine="85" d="M331.08,421 C331.08,421 341.25,421 341.25,421 " fill="none" id="PaintPanel-PaintWidthPanel" style="stroke:#595959;stroke-width:1.0;"/><polygon fill="#595959" points="354.25,421,345.25,417,349.25,421,345.25,425,354.25,421" style="stroke:#595959;stroke-width:1.0;"/><line style="stroke:#595959;stroke-width:1.0;" x1="349.25" x2="341.25" y1="421" y2="421"/><polygon fill="#595959" points="319.08,421,325.08,425,331.08,421,325.08,417,319.08,421" style="stroke:#595959;stroke-width:1.0;"/><text fill="#000000" font-family="Verdana" font-size="13" lengthAdjust="spacing" textLength="8" x="327.2052" y="418.7276">1</text></g><!--MD5=[34eda09cd70b612f693dbf4a27f8b2b2]
link DiscussionUserItemPanel to AbstractUserItemPanel--><g id="link_DiscussionUserItemPanel_AbstractUserItemPanel"><path codeLine="86" d="M817.68,456 C832.45,456 842.25,456 842.25,456 C842.25,456 842.25,815.96 842.25,815.96 " fill="none" id="DiscussionUserItemPanel-to-AbstractUserItemPanel" style="stroke:#000082;stroke-width:1.0;"/><polygon fill="none" points="849.25,815.96,842.25,835.96,835.25,815.96,849.25,815.96" style="stroke:#000082;stroke-width:1.0;"/></g><!--MD5=[7f64e99ca1546acf95c640f073f8c9b1]
link InviteUserItemPanel to AbstractUserItemPanel--><g id="link_InviteUserItemPanel_AbstractUserItemPanel"><path codeLine="87" d="M969.25,699.84 C969.25,699.84 969.25,815.91 969.25,815.91 " fill="none" id="InviteUserItemPanel-to-AbstractUserItemPanel" style="stroke:#000082;stroke-width:1.0;"/><polygon fill="none" points="976.25,815.91,969.25,835.91,962.25,815.91,976.25,815.91" style="stroke:#000082;stroke-width:1.0;"/></g><!--MD5=[bd0d44b635615aef349e5770c08eb6db]
link DiscussionUsersPanel to InviteFriendsPanel--><!--MD5=[3dfd6793d9211820beee052c8c583c17]
link ChatPane to PaintPanel--><!--MD5=[79344c0fbfeb38f0d62de07887eb0c20]
@startuml client-discussion

!theme plain
top to bottom direction
skinparam linetype ortho
set namespaceSeparator none

abstract class AbstractUserItemPanel {
  + addButton(JButton): void
  + setUsername(String): void
}
class DiscussionFrame {
  + removeUser(int): void
  + updateUserListFrame(): void
  + updateInviteFriendsFrame(): void
  + showInviteResult(int): void
  + updateDiscussion(DiscussionInfo): void
  + addUser(UserDiscussion): void
  + DiscussionFrame():
}
class ChatPane {
  - - -
  ...
}
class DrawPanel {
  + paintComponent(Graphics): void
  + add(int, int): void
  + clear(): void
  + mouseDragged(MouseEvent): void
  + mouseMoved(MouseEvent): void
  + mouseReleased(MouseEvent): void
  + mousePressed(MouseEvent): void
  + mouseExited(MouseEvent): void
  + mouseClicked(MouseEvent): void
  + mouseEntered(MouseEvent): void
  + DrawPanel():
}
class DiscussionUserItemPanel {
  + actionPerformed(ActionEvent): void
  + UserItemPanel(UserDiscussion):
}
class DiscussionUsersPanel {
  + DiscussionUsersPanel(ArrayList<UserDiscussion>):
}
class InviteUserItemPanel {
  + actionPerformed(ActionEvent): void
  + UserItemPanel(UserDiscussion):
}
class InviteFriendsPanel {
  + InviteFriendsPanel(ArrayList<UserDiscussion>):
}
class FasterScrollPane {
  + FasterScrollPane(Component):
}
class LoadingLabel {
  + LoadingLabel():
}
class PaintPanel {
  + updateDrawList(ArrayList<Draw>): void
  + actionPerformed(ActionEvent): void
  + receiveClear(): void
  + receiveAdd(Draw): void
  + PaintPanel():
}
class PaintColorPanel {
  - paintColor: Color
  + actionPerformed(ActionEvent): void
  + PaintColorPanel():
}
class PaintWidthPanel {
  - paintWidth: int
  + PaintWidthPanel():
}

DiscussionFrame        o-[#595959,plain]-> "1" ChatPane
DiscussionFrame        o-[#595959,plain]-> "1" PaintPanel
DiscussionFrame        -[#595959,dashed]->  DiscussionUsersPanel    : "«create»"
DiscussionFrame        -[#595959,dashed]right->  FasterScrollPane        : "«use»"
DiscussionFrame        -[#595959,dashed]->  InviteFriendsPanel      : "«create»"
DiscussionFrame        -[#595959,dashed]right->  LoadingLabel            : "«use»"
DiscussionUsersPanel   *-[#595959,dashed]-> "*" DiscussionUserItemPanel
DrawPanel              +-[#820000,plain]-  PaintPanel
InviteFriendsPanel     *-[#595959,dashed]-> "*" InviteUserItemPanel
PaintPanel             *-[#595959,plain]-> "1" DrawPanel
PaintPanel             *-[#595959,plain]-> "1" PaintColorPanel
PaintPanel             *-[#595959,plain]right-> "1" PaintWidthPanel
DiscussionUserItemPanel      -[#000082,plain]-^  AbstractUserItemPanel
InviteUserItemPanel          -[#000082,plain]-^  AbstractUserItemPanel
DiscussionUserItemPanel      +-[#820000,plain]-  DiscussionUsersPanel
InviteUserItemPanel          +-[#820000,plain]-  InviteFriendsPanel
DiscussionUsersPanel -[hidden]- InviteFriendsPanel
ChatPane -[hidden]- PaintPanel
@enduml

@startuml client-discussion








<style>
  root {
    BackgroundColor white
    FontColor black
    FontName Verdana
    HyperLinkColor blue
    LineColor black
    LineThickness 1
    Margin 5
  }
  caption {
    LineThickness 0
  }
  footer {
    LineThickness 0
  }
  header {
    LineThickness 0
  }
  node {
    MaximumWidth 300
  }
  title {
    FontSize 22
    LineThickness 0
  }
</style>

skinparam ArrowLollipopColor black
skinparam BackgroundColor white
skinparam DefaultFontName Verdana
skinparam DefaultMonospacedFontName Courier
skinparam LifelineStrategy nosolid
skinparam ParticipantPadding 10
skinparam SequenceLifeLineBorderColor black
skinparam Shadowing false
skinparam UseBetaStyle true

skinparam Activity {
  BackgroundColor white
  BarColor black
  BorderColor black
  FontColor black
  FontName Verdana
}
skinparam Boundary {
  FontColor black
}
skinparam Box {
  Padding 5
}
skinparam CircledCharacter {
  FontColor black
  FontName Courier
  Radius 9
}
skinparam Class {
  BackgroundColor white
  BorderColor black
  FontColor black
  FontName Verdana
}
skinparam ClassAttribute {
  FontColor black
  FontName Verdana
}
skinparam ClassStereotype {
  FontColor black
  FontName Verdana
}
skinparam Footer {
  FontColor black
  FontName Verdana
}
skinparam Header {
  FontColor black
  FontName Verdana
}
skinparam Hyperlink {
  Color blue
}
skinparam IconPackage {
  Color black
  BackgroundColor white
}
skinparam IconPrivate {
  Color black
  BackgroundColor white
}
skinparam IconProtected {
  Color black
  BackgroundColor white
}
skinparam IconPublic {
  Color black
  BackgroundColor white
}
skinparam Note {
  FontColor black
  FontName Verdana
}
skinparam Object {
  BorderColor black
}
skinparam Package {
  BorderColor black
  FontColor black
  FontName Verdana
}
skinparam State {
  BackgroundColor white
  BorderColor black
}
skinparam StereotypeA {
  BackgroundColor white
  BorderColor black
}
skinparam StereotypeC {
  BackgroundColor white
  BorderColor black
}
skinparam StereotypeE {
  BackgroundColor white
  BorderColor black
}
skinparam StereotypeI {
  BackgroundColor white
  BorderColor black
}
skinparam StereotypeN {
  BackgroundColor white
  BorderColor black
}
skinparam UseCaseStereoType {
  FontColor black
  FontName Verdana
}
top to bottom direction
skinparam linetype ortho
set namespaceSeparator none

abstract class AbstractUserItemPanel {
  + addButton(JButton): void
  + setUsername(String): void
}
class DiscussionFrame {
  + removeUser(int): void
  + updateUserListFrame(): void
  + updateInviteFriendsFrame(): void
  + showInviteResult(int): void
  + updateDiscussion(DiscussionInfo): void
  + addUser(UserDiscussion): void
  + DiscussionFrame():
}
class ChatPane {
  - - -
  ...
}
class DrawPanel {
  + paintComponent(Graphics): void
  + add(int, int): void
  + clear(): void
  + mouseDragged(MouseEvent): void
  + mouseMoved(MouseEvent): void
  + mouseReleased(MouseEvent): void
  + mousePressed(MouseEvent): void
  + mouseExited(MouseEvent): void
  + mouseClicked(MouseEvent): void
  + mouseEntered(MouseEvent): void
  + DrawPanel():
}
class DiscussionUserItemPanel {
  + actionPerformed(ActionEvent): void
  + UserItemPanel(UserDiscussion):
}
class DiscussionUsersPanel {
  + DiscussionUsersPanel(ArrayList<UserDiscussion>):
}
class InviteUserItemPanel {
  + actionPerformed(ActionEvent): void
  + UserItemPanel(UserDiscussion):
}
class InviteFriendsPanel {
  + InviteFriendsPanel(ArrayList<UserDiscussion>):
}
class FasterScrollPane {
  + FasterScrollPane(Component):
}
class LoadingLabel {
  + LoadingLabel():
}
class PaintPanel {
  + updateDrawList(ArrayList<Draw>): void
  + actionPerformed(ActionEvent): void
  + receiveClear(): void
  + receiveAdd(Draw): void
  + PaintPanel():
}
class PaintColorPanel {
  - paintColor: Color
  + actionPerformed(ActionEvent): void
  + PaintColorPanel():
}
class PaintWidthPanel {
  - paintWidth: int
  + PaintWidthPanel():
}

DiscussionFrame        o-[#595959,plain]-> "1" ChatPane
DiscussionFrame        o-[#595959,plain]-> "1" PaintPanel
DiscussionFrame        -[#595959,dashed]->  DiscussionUsersPanel    : "«create»"
DiscussionFrame        -[#595959,dashed]right->  FasterScrollPane        : "«use»"
DiscussionFrame        -[#595959,dashed]->  InviteFriendsPanel      : "«create»"
DiscussionFrame        -[#595959,dashed]right->  LoadingLabel            : "«use»"
DiscussionUsersPanel   *-[#595959,dashed]-> "*" DiscussionUserItemPanel
DrawPanel              +-[#820000,plain]-  PaintPanel
InviteFriendsPanel     *-[#595959,dashed]-> "*" InviteUserItemPanel
PaintPanel             *-[#595959,plain]-> "1" DrawPanel
PaintPanel             *-[#595959,plain]-> "1" PaintColorPanel
PaintPanel             *-[#595959,plain]right-> "1" PaintWidthPanel
DiscussionUserItemPanel      -[#000082,plain]-^  AbstractUserItemPanel
InviteUserItemPanel          -[#000082,plain]-^  AbstractUserItemPanel
DiscussionUserItemPanel      +-[#820000,plain]-  DiscussionUsersPanel
InviteUserItemPanel          +-[#820000,plain]-  InviteFriendsPanel
DiscussionUsersPanel -[hidden]- InviteFriendsPanel
ChatPane -[hidden]- PaintPanel
@enduml

PlantUML version 1.2022.7(Tue Aug 23 01:01:30 CST 2022)
(GPL source distribution)
Java Runtime: Java(TM) SE Runtime Environment
JVM: Java HotSpot(TM) 64-Bit Server VM
Default Encoding: GBK
Language: zh
Country: CN
--></g></svg>